<?xml version="1.0" encoding="UTF-8" standalone="no"?>
<!-- Created with Inkscape (http://www.inkscape.org/) -->

<svg
   width="204.8575mm"
   height="64.246239mm"
   viewBox="0 0 204.8575 64.246239"
   version="1.1"
   id="svg5"
   xmlns="http://www.w3.org/2000/svg"
   xmlns:svg="http://www.w3.org/2000/svg">
  <defs
     id="defs2" />
  <g
     id="g4111"
     style="display:inline"
     transform="translate(-2.571255,-72.876883)">
    <path
       id="path4107"
       style="fill:#000000;fill-opacity:1;stroke:none;stroke-width:0.838572"
       d="m 196.61865,100.37338 v 4e-4 c -0.35417,-1.4e-4 -0.70864,0.0179 -1.06213,0.0556 -5.24606,0.40667 -9.68414,5.24052 -9.69109,10.49209 -0.002,0.0696 -0.003,0.13918 -0.004,0.20875 v 0.71742 3.71744 0.006 4.48684 c 0.54219,-1.20803 1.31668,-2.3126 2.25702,-3.25356 v -1.23331 -3.72384 -0.71741 c 0.0573,-1.6976 0.51889,-3.40182 1.5224,-4.80516 1.50783,-2.33142 4.24135,-3.63462 6.97741,-3.66065 v -4e-4 h 0.0292 c 2.74419,0.0185 5.48948,1.3227 7.0018,3.66105 1.00351,1.40334 1.46512,3.10756 1.5224,4.80516 v 4.44525 l -8.16549,4.1e-4 c -0.12206,-0.003 -0.24446,-0.005 -0.36671,-0.005 -0.0767,6.2e-4 -0.15321,0.002 -0.22993,0.004 -5.25157,0.007 -10.08544,4.44504 -10.4921,9.6911 -0.49345,4.62854 2.32474,9.44479 6.71347,11.09714 1.26407,0.5056 2.62518,0.75523 3.98737,0.75779 v 0.002 h 10.79042 v -2.25501 l -4.11974,3.9e-4 4e-4,-3.9e-4 c -0.92395,-0.006 -1.85066,-0.002 -2.77729,3.9e-4 l -2.56253,4e-4 c -0.59216,-0.004 -1.18328,-0.0114 -1.77234,-0.0252 -3.34836,-0.19046 -6.54201,-2.46047 -7.57285,-5.69493 -1.21322,-3.49342 0.0618,-7.76216 3.20877,-9.79746 1.40334,-1.00352 3.10756,-1.46514 4.80516,-1.52242 v 0.002 h 0.0536 0.0248 0.69863 c 0.0112,4.1e-4 0.0224,3.9e-4 0.0336,7.7e-4 1.9248,-2e-4 3.84971,-5.8e-4 5.77451,-7.7e-4 0.0112,0 0.0224,0 0.0336,0 h 2.02148 0.0988 2.07146 v -2.26501 -4.43486 c -6.2e-4,-0.0696 -0.002,-0.13909 -0.004,-0.20875 -0.007,-5.25158 -4.44504,-10.08543 -9.6911,-10.49209 -0.3616,-0.0385 -0.72422,-0.057 -1.08652,-0.056 z m 10.79041,34.4943 v -4.60121 h -2.25701 v 4.60121 z" />
    <path
       style="display:inline;fill:#000000;fill-opacity:1;stroke:none;stroke-width:0.213604px;stroke-linecap:butt;stroke-linejoin:miter;stroke-opacity:1"
       d="m 109.14995,104.99958 h -8.73872"
       id="path4109" />
  </g>
  <g
     id="g3456"
     style="display:inline"
     transform="translate(-2.571255,-72.876883)">
    <path
       id="path3452"
       style="fill:#000000;fill-opacity:1;stroke:none;stroke-width:0.807316"
       d="m 153.29452,111.19825 4.1e-4,6.63429 h -4.1e-4 l 4.1e-4,8.1455 c -0.003,0.12205 -0.005,0.24445 -0.005,0.36671 h 4.1e-4 c 6.1e-4,0.0767 0.002,0.1532 0.004,0.22994 0.007,5.25156 4.44503,10.08542 9.69109,10.49209 4.62855,0.49344 9.4448,-2.32474 11.09714,-6.71347 0.50561,-1.26407 0.75524,-2.62518 0.7578,-3.98737 h 7.8e-4 v -8.5334 c -2e-4,-1.5732 -6.1e-4,-3.14642 -7.8e-4,-4.71958 v -1.91471 h -2.25462 l 4.1e-4,6.63429 h 4.1e-4 v 1.86272 l -4.1e-4,-4.1e-4 c -0.006,0.92395 -0.002,1.85066 4.1e-4,2.77728 l 4.1e-4,2.56255 c -0.004,0.59214 -0.0114,1.18327 -0.0252,1.77234 -0.19047,3.34835 -2.46048,6.542 -5.69493,7.57284 -3.49343,1.21322 -7.76218,-0.0617 -9.79748,-3.20877 -1.00351,-1.40335 -1.46513,-3.10756 -1.52241,-4.80516 h 0.002 v -0.777 c 4.1e-4,-0.0111 4.1e-4,-0.0224 7.8e-4,-0.0336 -2.1e-4,-1.93599 -6.2e-4,-3.8721 -7.8e-4,-5.80809 v -1.91471 h 7.8e-4 c -2.1e-4,-1.5732 -6.2e-4,-3.14643 -7.8e-4,-4.71958 v -1.91471 z" />
    <path
       style="display:inline;fill:#000000;fill-opacity:1;stroke:none;stroke-width:0.213604px;stroke-linecap:butt;stroke-linejoin:miter;stroke-opacity:1"
       d="m 109.14995,104.99958 h -8.73872"
       id="path3454" />
  </g>
  <g
     id="g2451"
     style="display:inline"
     transform="translate(-2.571255,-72.876883)">
    <path
       id="path2447"
       style="fill:#000000;fill-opacity:1;stroke:none;stroke-width:0.807316"
       d="m 142.26894,72.880488 -2.17024,4.09e-4 v 11.095539 h -0.009 c 0.0524,2.68218 -1.19546,5.39993 -3.4819,6.878625 -1.33487,0.954552 -2.95607,1.393941 -4.57082,1.448426 v 1.935901 0.210744 1.9363 c 1.61475,0.05449 3.23595,0.493478 4.57082,1.448028 2.28644,1.478697 3.53429,4.19685 3.4819,6.87903 h 0.009 v 10.8612 2.25461 12.94747 h 2.17024 V 117.8293 104.01567 h -0.0108 c 4.1e-4,0.009 0,0.0171 4.1e-4,0.0256 -0.009,-0.19357 -0.0218,-0.38708 -0.0424,-0.58025 -0.0162,-0.20897 -0.0401,-0.4166 -0.0708,-0.62263 h -7.7e-4 c -0.11933,-0.80091 -0.34582,-1.57778 -0.66343,-2.31541 -0.42347,-0.983515 -1.00861,-1.89755 -1.71636,-2.706904 -0.35387,-0.404674 -0.73859,-0.782988 -1.1489,-1.130908 -0.41031,-0.347923 -0.84626,-0.665396 -1.30327,-0.947757 -0.22666,-0.140047 -0.45865,-0.271197 -0.69501,-0.393497 -0.002,-0.001 -0.004,-0.0022 -0.005,-0.0032 -0.002,-8.51e-4 -0.003,-0.0012 -0.005,-0.002 -0.23329,-0.120395 -0.47103,-0.231845 -0.71261,-0.333913 -0.007,-0.0031 -0.0146,-0.0061 -0.022,-0.0092 -0.24249,-0.101781 -0.48899,-0.194049 -0.73862,-0.276328 -7.7e-4,-4.1e-4 -0.002,-4.1e-4 -0.003,-8.51e-4 -0.002,-4.11e-4 -0.002,-4.11e-4 -0.004,-8.52e-4 -0.25324,-0.08327 -0.50963,-0.156637 -0.769,-0.218741 -0.26031,-0.06234 -0.52333,-0.114024 -0.7886,-0.153961 0.2766,-0.04164 0.55061,-0.09598 0.82179,-0.161958 0.002,-4.1e-4 0.003,-4.1e-4 0.005,-8.51e-4 0.002,-4.09e-4 0.004,-10e-4 0.006,-0.0016 0.26973,-0.06594 0.53642,-0.14396 0.7994,-0.232741 7.7e-4,-4.09e-4 0.002,-4.09e-4 0.003,-8.51e-4 0.002,-4.09e-4 0.002,-8.51e-4 0.004,-0.0012 0.26353,-0.08917 0.52322,-0.189843 0.77859,-0.300723 0.002,-4.09e-4 0.003,-0.0015 0.004,-0.002 0.002,-6.14e-4 0.002,-0.001 0.004,-0.0016 0.25506,-0.110964 0.50587,-0.232522 0.75141,-0.363907 0.002,-6.14e-4 0.002,-0.0016 0.004,-0.0024 7.7e-4,-6.14e-4 0.002,-0.0019 0.003,-0.0024 0.24433,-0.130983 0.48347,-0.271505 0.71702,-0.421491 0.005,-0.0028 0.009,-0.0056 0.0132,-0.0084 0.23474,-0.151235 0.4638,-0.311861 0.68623,-0.481074 0.22434,-0.170669 0.4418,-0.350171 0.65223,-0.537863 0.20853,-0.186002 0.40996,-0.380367 0.60344,-0.58185 0.004,-0.0043 0.008,-0.0085 0.0124,-0.0128 0.19061,-0.199126 0.37325,-0.405256 0.54787,-0.61824 0.004,-0.0047 0.008,-0.0096 0.0116,-0.01439 0.17461,-0.21375 0.34107,-0.434184 0.49828,-0.660629 0.002,-0.0039 0.005,-0.008 0.008,-0.01199 0.15712,-0.226981 0.30518,-0.46012 0.44348,-0.698618 0.002,-0.0044 0.005,-0.0084 0.008,-0.0128 0.13768,-0.238254 0.26551,-0.481704 0.3831,-0.730212 0.002,-0.0054 0.005,-0.0106 0.008,-0.01599 0.11668,-0.247736 0.2229,-0.5003 0.31832,-0.757003 0.002,-0.0066 0.005,-0.01302 0.008,-0.01959 0.0952,-0.257775 0.17912,-0.519815 0.25154,-0.785398 v -4.1e-4 c 0.002,-0.007 0.003,-0.01386 0.005,-0.02079 0.0717,-0.26543 0.1319,-0.534589 0.17956,-0.806591 7.7e-4,-0.0048 0.002,-0.0096 0.002,-0.01439 0.0478,-0.27553 0.0834,-0.55396 0.10518,-0.834985 0.0438,-0.408149 0.0594,-0.8178 0.05,-1.226483 h 0.004 z m 0,57.896272 -2.17024,0.002 v 6.34436 h 2.17024 z m -10.78922,-15.20608 c -0.0767,6.1e-4 -0.1532,0.002 -0.22994,0.004 h 0.56346 c -0.11107,-0.002 -0.22233,-0.005 -0.33352,-0.004 z" />
    <path
       style="display:inline;fill:#000000;fill-opacity:1;stroke:none;stroke-width:0.213604px;stroke-linecap:butt;stroke-linejoin:miter;stroke-opacity:1"
       d="m 109.14995,104.99958 h -8.73872"
       id="path2449" />
  </g>
  <g
     id="g301"
     style="display:inline"
     transform="translate(-2.571255,-72.876883)">
    <path
       id="path295"
       style="fill:#000000;fill-opacity:1;stroke:none;stroke-width:0.807316"
       d="m 88.543176,72.877324 -2.17024,4.09e-4 v 11.095539 h -0.0088 c 0.05239,2.68218 -1.195456,5.399929 -3.481904,6.878625 -1.334872,0.954551 -2.95606,1.393941 -4.57082,1.448426 v 1.9359 0.210745 1.936301 c 1.61476,0.05449 3.235948,0.493476 4.57082,1.448027 2.286448,1.478696 3.534293,4.196854 3.481904,6.879034 h 0.0088 v 10.14816 22.26386 h 2.17024 v -22.26386 -10.846 h -0.01076 c 4.1e-4,0.009 1.6e-5,0.0171 4.1e-4,0.0256 -0.0085,-0.19357 -0.02182,-0.38708 -0.04241,-0.58025 -0.01617,-0.20898 -0.04009,-0.41661 -0.07081,-0.62264 h -7.73e-4 c -0.119335,-0.80091 -0.345825,-1.57777 -0.663428,-2.3154 -0.423472,-0.983521 -1.008609,-1.897554 -1.716355,-2.706909 -0.353873,-0.404674 -0.738591,-0.782988 -1.148908,-1.130908 -0.41031,-0.347923 -0.846257,-0.665396 -1.30326,-0.947757 -0.226668,-0.140047 -0.45866,-0.271198 -0.695024,-0.393497 -0.0015,-10e-4 -0.0039,-0.0022 -0.0054,-0.0032 -0.0015,-8.51e-4 -0.0031,-0.0012 -0.0046,-0.002 -0.233299,-0.120395 -0.471041,-0.231845 -0.712613,-0.333913 -0.0077,-0.0031 -0.0147,-0.0061 -0.02198,-0.0092 -0.242493,-0.101782 -0.488987,-0.194049 -0.738607,-0.276328 -7.74e-4,-4.1e-4 -0.0023,-4.1e-4 -0.0031,-8.52e-4 -0.0015,-4.09e-4 -0.0023,-4.09e-4 -0.0039,-8.51e-4 -0.253242,-0.08327 -0.509633,-0.15663 -0.769004,-0.218741 -0.260307,-0.06234 -0.52333,-0.114024 -0.788597,-0.153962 0.276596,-0.04164 0.550608,-0.09598 0.821788,-0.161957 0.0015,-4.1e-4 0.0031,-4.1e-4 0.0046,-8.52e-4 0.0023,-4.09e-4 0.0039,-10e-4 0.0062,-0.0016 0.269725,-0.06594 0.536416,-0.143958 0.799393,-0.23274 7.74e-4,-4.09e-4 0.0023,-4.09e-4 0.0031,-8.51e-4 0.0015,-4.09e-4 0.0023,-8.51e-4 0.0039,-0.0012 0.263526,-0.08917 0.523214,-0.189843 0.778599,-0.300721 0.0015,-4.1e-4 0.0031,-0.001 0.0039,-0.0016 0.0015,-6.15e-4 0.0023,-0.001 0.0039,-0.0016 0.255045,-0.110965 0.505864,-0.232521 0.751406,-0.363907 0.0015,-6.15e-4 0.0023,-0.0016 0.0039,-0.0024 7.74e-4,-6.14e-4 0.0023,-0.0015 0.0031,-0.002 0.244319,-0.130983 0.483469,-0.271506 0.717016,-0.421491 0.0046,-0.0028 0.0088,-0.0056 0.01323,-0.0084 0.234731,-0.151235 0.463797,-0.311859 0.686224,-0.481077 0.224339,-0.170669 0.441806,-0.350164 0.65223,-0.53786 0.208529,-0.186003 0.409954,-0.380367 0.603447,-0.581852 0.0039,-0.0043 0.0083,-0.0085 0.01238,-0.0128 0.190599,-0.199132 0.37325,-0.405256 0.547861,-0.61824 0.0039,-0.0047 0.0077,-0.0096 0.01161,-0.01439 0.174618,-0.213749 0.341073,-0.434184 0.498273,-0.66063 0.0031,-0.0039 0.0054,-0.008 0.008,-0.012 0.157114,-0.226985 0.305182,-0.46012 0.443484,-0.69862 0.0023,-0.0044 0.0054,-0.0088 0.0077,-0.01319 0.137691,-0.238254 0.265507,-0.481705 0.383109,-0.730213 0.0023,-0.0054 0.0054,-0.01061 0.008,-0.01599 0.116688,-0.247735 0.222899,-0.500301 0.318322,-0.757005 0.0023,-0.0066 0.0054,-0.01302 0.0077,-0.01959 0.09518,-0.257774 0.179115,-0.519814 0.25154,-0.785397 v -4.11e-4 c 0.0015,-0.007 0.0031,-0.01386 0.0054,-0.02079 0.07174,-0.26543 0.131894,-0.53459 0.179555,-0.806593 7.74e-4,-0.0048 0.0015,-0.0096 0.0023,-0.01439 0.04782,-0.275531 0.08339,-0.553961 0.105174,-0.834987 0.0438,-0.408151 0.05935,-0.817799 0.04999,-1.226483 h 0.0039 v -8.865718 h 0.01803 v 4.1e-4 l 3.896601,-4.1e-4 -4.1e-4,4.1e-4 c 0.923951,0.0062 1.850657,0.0023 2.777277,-4.1e-4 l 2.562543,-4.09e-4 c 0.592148,0.0039 1.183275,0.01134 1.772343,0.02519 3.348358,0.190459 6.542008,2.460457 7.572848,5.694934 0.75643,2.178126 0.54489,4.657402 -0.48388,6.709067 -0.002,0.0049 -0.005,0.01 -0.007,0.0148 -0.62112,1.232865 -1.53783,2.310297 -2.71809,3.073607 -1.40335,1.003513 -3.10757,1.465123 -4.805166,1.522408 v -0.0016 h -0.776997 c -0.01114,-4.09e-4 -0.02244,2.7e-5 -0.03359,-4.09e-4 -1.029991,1.1e-4 -2.059998,1.95e-4 -3.090005,4.09e-4 -1.395812,1.125592 -3.068158,1.90437 -4.83835,2.171041 v 4.1e-4 c 1.755937,0.26453 3.415368,1.033281 4.804355,2.144248 l 5.316643,-4.1e-4 -7.8e-4,4.1e-4 c 2.26408,0.0062 4.53485,0.0023 6.80545,-4.1e-4 h 2.47656 v -0.0028 c 10.60619,2.03e-4 19.20224,8.592167 19.20224,19.193847 0,10.60183 -8.59626,19.19546 -19.20264,19.19546 v -0.008 H 99.016685 v 2.25502 l 5.614155,-4.1e-4 -4.1e-4,4.1e-4 c 1.25913,0.006 2.52187,0.002 3.78463,-4.1e-4 h 1.37724 v 0.004 c 1.47762,0 2.92043,-0.14991 4.31409,-0.43429 0.006,-0.002 0.0125,-0.002 0.0188,-0.004 1.39099,-0.28513 2.73268,-0.70485 4.01137,-1.24487 0.002,-7.8e-4 0.005,-0.002 0.007,-0.003 0.003,-0.002 0.006,-0.002 0.009,-0.004 0.31382,-0.13285 0.62379,-0.27316 0.92976,-0.42029 0.009,-0.004 0.017,-0.008 0.0256,-0.0124 2.18318,-1.05342 4.16083,-2.46511 5.8561,-4.15933 3.88329,-3.88092 6.28557,-9.2421 6.28557,-15.16369 0,-11.84306 -9.60855,-21.445463 -21.45726,-21.44568 h -8.5598 c 0.55539,-0.112769 1.09979,-0.273635 1.62839,-0.476679 0.006,-0.0022 0.0118,-0.0045 0.0176,-0.0068 0.79174,-0.305748 1.54736,-0.707395 2.24942,-1.189292 0.002,-0.0016 0.005,-0.0029 0.007,-0.0044 0.002,-0.0012 0.003,-0.0028 0.005,-0.004 2.58746,-1.781114 4.44427,-4.651233 4.6896,-7.815984 0.49344,-4.628543 -2.32474,-9.444795 -6.71347,-11.097136 -1.26407,-0.505609 -2.62519,-0.755245 -3.987374,-0.757806 v -0.0016 H 88.561949 v -4.1e-4 z" />
    <path
       style="display:inline;fill:#000000;fill-opacity:1;stroke:none;stroke-width:0.213604px;stroke-linecap:butt;stroke-linejoin:miter;stroke-opacity:1"
       d="m 109.14995,104.99958 h -8.73872"
       id="path297" />
  </g>
  <g
     id="g595"
     style="display:inline"
     transform="translate(-2.571255,-72.876883)">
    <path
       id="path589"
       style="fill:#000000;fill-opacity:1;stroke:none;stroke-width:0.838572"
       d="m 41.362196,100.37305 v 2.29061 h 4.600814 c 2.744188,0.0185 5.489483,1.32271 7.001793,3.66106 1.003511,1.40335 1.465128,3.10756 1.522408,4.80516 v 4.44525 l -8.165494,4.1e-4 c -0.122058,-0.003 -0.244454,-0.005 -0.366706,-0.005 -0.07669,6.1e-4 -0.153209,0.002 -0.22994,0.004 -5.251564,0.007 -10.085428,4.44503 -10.492093,9.69109 -0.493444,4.62855 2.324738,9.4448 6.713468,11.09714 1.264068,0.50561 2.625185,0.75525 3.987372,0.75781 v 0.002 h 10.790416 v -2.25502 l -4.119737,4.1e-4 4.1e-4,-4.1e-4 c -0.923953,-0.006 -1.850659,-0.002 -2.777283,4.1e-4 l -2.56254,4.1e-4 c -0.59215,-0.004 -1.18328,-0.0114 -1.772343,-0.0252 -3.34835,-0.19046 -6.542004,-2.46047 -7.572847,-5.69493 -1.213217,-3.49342 0.06172,-7.76216 3.208773,-9.79747 1.403346,-1.00351 3.107556,-1.46513 4.805161,-1.52241 v 0.002 h 0.776999 c 0.01118,4.1e-4 0.02241,4.1e-4 0.03359,7.7e-4 1.935997,-2e-4 3.872105,-6.1e-4 5.808102,-7.7e-4 h 2.021479 0.09877 2.071466 v -2.26501 -4.43486 c -6.13e-4,-0.0696 -0.0015,-0.13909 -0.0036,-0.20875 -0.007,-5.25158 -4.445038,-10.08542 -9.6911,-10.49209 -0.361606,-0.0385 -0.724221,-0.057 -1.086519,-0.056 z m 15.362038,34.4943 v -4.60121 h -2.257019 v 4.60121 z" />
    <path
       style="display:inline;fill:#000000;fill-opacity:1;stroke:none;stroke-width:0.213604px;stroke-linecap:butt;stroke-linejoin:miter;stroke-opacity:1"
       d="m 109.14995,104.99958 h -8.73872"
       id="path591" />
  </g>
  <g
     id="g191"
     style="display:inline"
     transform="translate(-2.571255,-72.876883)">
    <path
       id="path185"
       style="fill:#000000;fill-opacity:1;stroke:none;stroke-width:0.807316"
       d="m 24.138391,72.880933 -2.17024,4.09e-4 v 11.095539 h -0.0088 c 0.05239,2.68218 -1.195458,5.39993 -3.481903,6.878625 -1.334871,0.954552 -2.956062,1.393942 -4.570821,1.448427 v 1.935899 0.210742 1.936306 c 1.614759,0.05448 3.23595,0.493475 4.570821,1.448023 2.286445,1.4787 3.534293,4.196847 3.481903,6.879027 h 0.0088 v 10.8612 l -8.252272,4.1e-4 c -0.122058,-0.003 -0.244454,-0.005 -0.366706,-0.005 -0.07669,6.1e-4 -0.153209,0.002 -0.22994,0.004 -5.2515644,0.007 -10.0854276,4.44504 -10.4920922,9.69109 -0.4934448,4.62855 2.3247373,9.4448 6.7134671,11.09714 1.2640681,0.50561 2.6251841,0.75525 3.9873711,0.75781 v 0.002 h 10.790417 v -2.25501 l -4.119737,4.1e-4 4.09e-4,-4.1e-4 c -0.923952,-0.006 -1.850657,-0.002 -2.777283,4.1e-4 l -2.562539,4e-4 c -0.59215,-0.004 -1.18328,-0.0114 -1.772344,-0.0252 -3.3483493,-0.19046 -6.5420038,-2.46046 -7.5728462,-5.69493 -1.2132166,-3.49342 0.061722,-7.76216 3.2087731,-9.79747 1.4033451,-1.00351 3.1075561,-1.46513 4.8051601,-1.52241 v 0.002 h 0.777 c 0.01118,4.1e-4 0.02241,4.1e-4 0.03359,7.7e-4 1.935997,-2e-4 3.872105,-6.1e-4 5.808102,-7.7e-4 h 2.02148 0.09877 2.071466 v -13.81346 h -0.01079 c 4.1e-4,0.009 7e-6,0.0171 4.1e-4,0.0256 -0.0085,-0.19357 -0.0218,-0.38709 -0.04239,-0.58026 -0.0162,-0.20898 -0.04009,-0.41661 -0.07078,-0.62264 h -8.51e-4 c -0.119334,-0.80091 -0.345821,-1.57776 -0.663427,-2.3154 -0.423477,-0.983512 -1.008614,-1.89755 -1.716357,-2.706902 -0.353871,-0.404676 -0.738593,-0.782986 -1.148904,-1.130908 -0.410315,-0.347922 -0.846264,-0.665393 -1.303266,-0.947755 -0.226668,-0.140051 -0.458658,-0.271202 -0.69502,-0.393501 -0.0019,-7.75e-4 -0.0037,-0.0023 -0.0056,-0.0031 -0.0015,-7.75e-4 -0.0029,-0.0015 -0.0044,-0.0023 -0.233301,-0.120395 -0.471039,-0.231845 -0.712614,-0.333915 -0.0074,-0.0031 -0.01466,-0.0062 -0.02199,-0.0092 -0.242493,-0.101777 -0.488988,-0.194043 -0.738609,-0.276326 -0.001,-4.1e-4 -0.0021,-4.1e-4 -0.0032,-7.74e-4 -0.0012,-4.1e-4 -0.0023,-4.1e-4 -0.0036,-7.73e-4 -0.253242,-0.08327 -0.509632,-0.156635 -0.769002,-0.218744 -0.260309,-0.06237 -0.523331,-0.114019 -0.788596,-0.153957 0.276597,-0.04163 0.550604,-0.09599 0.821788,-0.161959 0.0015,-4.1e-4 0.0029,-4.1e-4 0.0044,-7.73e-4 0.002,-4.11e-4 0.004,-7.74e-4 0.006,-0.0015 0.269725,-0.06593 0.53641,-0.143959 0.799394,-0.232742 10e-4,-4.11e-4 0.0022,-4.11e-4 0.0032,-7.74e-4 0.0012,-4.1e-4 0.0023,-7.74e-4 0.0036,-0.0015 0.26353,-0.08917 0.523217,-0.18984 0.7786,-0.300725 0.0012,-4.1e-4 0.0029,-7.74e-4 0.004,-0.0015 0.0012,-6.11e-4 0.0023,-7.72e-4 0.0036,-0.0015 0.25505,-0.110962 0.505867,-0.232518 0.751408,-0.363902 0.0012,-6.19e-4 0.0027,-0.0015 0.004,-0.0023 0.001,-6.19e-4 0.0021,-0.0015 0.0032,-0.0023 0.244326,-0.130989 0.483473,-0.271513 0.717016,-0.4215 0.0044,-0.0031 0.0088,-0.0054 0.01321,-0.0084 0.234733,-0.15123 0.463794,-0.311855 0.686223,-0.481072 0.22434,-0.170669 0.441808,-0.350167 0.652233,-0.53786 0.208527,-0.186003 0.409955,-0.380367 0.603443,-0.581851 0.0041,-0.0043 0.0083,-0.0085 0.01241,-0.0128 0.190601,-0.199131 0.37325,-0.405257 0.547858,-0.61824 0.0039,-0.0047 0.0077,-0.0096 0.01159,-0.01439 0.174615,-0.21375 0.341068,-0.434183 0.498273,-0.660629 0.0027,-0.0039 0.0053,-0.008 0.008,-0.012 0.157119,-0.226985 0.305182,-0.46012 0.443485,-0.69862 0.0026,-0.0044 0.005,-0.0084 0.0076,-0.0128 0.137684,-0.238254 0.265505,-0.481705 0.383102,-0.730212 0.0026,-0.0054 0.0055,-0.01061 0.008,-0.01599 0.116685,-0.247736 0.2229,-0.500302 0.318318,-0.757006 0.0025,-0.0066 0.0052,-0.01302 0.0076,-0.01959 0.09517,-0.257775 0.179115,-0.519815 0.251534,-0.785398 v -4.1e-4 c 0.0019,-0.007 0.0033,-0.01386 0.0052,-0.02079 0.0717,-0.265432 0.131896,-0.534591 0.179555,-0.806594 8.51e-4,-0.0048 0.0016,-0.0096 0.0024,-0.01439 0.04782,-0.27553 0.08339,-0.553959 0.105174,-0.834985 0.0438,-0.408151 0.05935,-0.817799 0.04999,-1.226483 h 0.004 v -8.866774 h 0.018 v -2.255019 z m -0.02,61.986417 v -4.60122 h -2.257017 v 4.60122 z" />
    <path
       style="display:inline;fill:#000000;fill-opacity:1;stroke:none;stroke-width:0.213604px;stroke-linecap:butt;stroke-linejoin:miter;stroke-opacity:1"
       d="m 109.14995,104.99958 h -8.73872"
       id="path187" />
  </g>
</svg>
