<?xml version="1.0" encoding="UTF-8" standalone="no"?>
<!-- Created with Inkscape (http://www.inkscape.org/) -->

<svg
   width="83.05648mm"
   height="83.020096mm"
   viewBox="0 0 83.05648 83.020096"
   version="1.1"
   id="svg5"
   xmlns="http://www.w3.org/2000/svg"
   xmlns:svg="http://www.w3.org/2000/svg">
  <defs
     id="defs2" />
  <g
     id="layer2"
     style="display:inline"
     transform="translate(-63.47185,-63.489951)">
    <path
       id="path11734"
       style="fill:#000000;fill-opacity:1;stroke:none;stroke-width:1.04325"
       d="m 88.537374,63.489951 v 14.338144 h -0.01137 c 0.0677,3.466031 -1.54482,6.978028 -4.499464,8.888862 -1.72498,1.233514 -3.819954,1.801312 -5.906616,1.871721 v 2.501656 0.272336 2.502172 c 2.086662,0.07041 4.181636,0.637691 5.906616,1.871202 2.954644,1.910837 4.567166,5.423346 4.499464,8.889376 h 0.01137 v 14.03532 l -10.663947,10e-4 c -0.157729,-0.004 -0.315894,-0.007 -0.473874,-0.006 -0.0991,8e-4 -0.197985,0.002 -0.29714,0.005 -6.786303,0.009 -13.032835,5.74408 -13.558345,12.52327 -0.637649,5.98121 3.004132,12.20498 8.675441,14.34021 1.633485,0.65337 3.392379,0.97596 5.152657,0.97927 v 0.002 h 13.943851 v -2.91403 l -5.323707,5.1e-4 5.18e-4,-5.1e-4 c -1.193972,-0.008 -2.391502,-0.003 -3.58893,5.1e-4 l -3.311424,5.2e-4 c -0.765202,-0.005 -1.529086,-0.0147 -2.2903,-0.0326 -4.326884,-0.24612 -8.453866,-3.17952 -9.785966,-7.35924 -1.567773,-4.51436 0.07976,-10.03061 4.146515,-12.66073 1.813465,-1.29678 4.015725,-1.8933 6.209443,-1.96732 v 0.002 h 1.004073 c 0.01445,5.3e-4 0.02896,5e-4 0.04341,10e-4 2.501781,-2.7e-4 5.003705,-7.7e-4 7.505486,-10e-4 h 2.612242 0.127643 2.676837 v -17.85051 h -0.01395 c 5.14e-4,0.011 3.2e-5,0.0221 5.16e-4,0.0331 -0.01099,-0.25014 -0.02817,-0.50021 -0.05478,-0.74983 -0.02093,-0.27005 -0.05181,-0.53836 -0.09147,-0.8046 h -0.001 c -0.15421,-1.03497 -0.446919,-2.03886 -0.857343,-2.992061 -0.547235,-1.27094 -1.303377,-2.452098 -2.217955,-3.49798 -0.457287,-0.522938 -0.954439,-1.011809 -1.484661,-1.461407 -0.530225,-0.449601 -1.093579,-0.859856 -1.684137,-1.224733 -0.292912,-0.180977 -0.592698,-0.350456 -0.898136,-0.508497 -0.0025,-0.0013 -0.0048,-0.0029 -0.0072,-0.0041 -0.0019,-9.55e-4 -0.0038,-0.0016 -0.0057,-0.0026 -0.30149,-0.15558 -0.6087,-0.299601 -0.920874,-0.431498 -0.0095,-0.004 -0.01895,-0.0079 -0.02842,-0.01188 -0.31336,-0.131527 -0.631892,-0.250759 -0.954464,-0.357085 -0.0014,-4.6e-4 -0.0027,-0.0011 -0.0041,-0.0015 -0.0015,-4.95e-4 -0.0031,-5.37e-4 -0.0047,-10e-4 -0.32725,-0.107603 -0.658569,-0.202401 -0.993738,-0.28267 -0.336383,-0.08056 -0.676272,-0.147347 -1.019058,-0.198956 0.357431,-0.05381 0.711515,-0.124034 1.06195,-0.209288 0.0019,-4.55e-4 0.0038,-5.8e-4 0.0057,-9.99e-4 0.0026,-6.33e-4 0.0052,-0.0014 0.0078,-0.0021 0.348552,-0.08521 0.693172,-0.186032 1.03301,-0.300758 0.0013,-4.52e-4 0.0028,-5.8e-4 0.0041,-9.99e-4 0.0015,-5.24e-4 0.0031,-0.001 0.0047,-0.0016 0.340545,-0.115235 0.676124,-0.245324 1.006139,-0.388606 0.0015,-6.48e-4 0.0032,-9.03e-4 0.0047,-0.0016 0.0016,-6.77e-4 0.0031,-0.0014 0.0047,-0.0021 0.329586,-0.143394 0.653703,-0.300474 0.971,-0.470255 0.0017,-9.06e-4 0.0035,-0.0017 0.0052,-0.0026 0.0014,-7.67e-4 0.0027,-0.0018 0.0041,-0.0026 0.315728,-0.169262 0.624766,-0.350851 0.926558,-0.544669 0.0057,-0.0036 0.01139,-0.0072 0.01705,-0.01085 0.303332,-0.195433 0.599337,-0.402999 0.88677,-0.621667 0.289901,-0.220548 0.570921,-0.452499 0.842841,-0.695048 0.269467,-0.24036 0.529764,-0.491526 0.779798,-0.751892 0.0053,-0.0055 0.01072,-0.01099 0.01602,-0.01654 0.246303,-0.257327 0.482333,-0.523691 0.70797,-0.798918 0.005,-0.0061 0.01,-0.01245 0.01499,-0.0186 0.225644,-0.276217 0.440742,-0.561073 0.643887,-0.853697 0.0035,-0.0051 0.0068,-0.0104 0.01033,-0.0155 0.203035,-0.293322 0.394369,-0.594585 0.573092,-0.902787 0.0033,-0.0057 0.0065,-0.01137 0.0098,-0.01705 0.177922,-0.307882 0.343096,-0.62248 0.495059,-0.943613 0.0033,-0.007 0.0071,-0.0137 0.01033,-0.02067 0.150786,-0.320136 0.288041,-0.646512 0.411345,-0.978236 0.0032,-0.0085 0.0067,-0.01683 0.0098,-0.02532 0.122988,-0.333108 0.231462,-0.671727 0.325045,-1.014926 0,0 0,-5.16e-4 0,-5.16e-4 0.0024,-0.009 0.0048,-0.01792 0.0072,-0.02687 0.09266,-0.343001 0.170442,-0.690817 0.232027,-1.042313 0.0011,-0.0062 0.002,-0.01241 0.0031,-0.0186 0.06179,-0.356053 0.10776,-0.715851 0.135909,-1.079005 0.0566,-0.527437 0.0767,-1.056796 0.0646,-1.584915 h 0.0047 V 66.403987 l 5.058605,-5.18e-4 -5.15e-4,5.18e-4 c 1.193979,0.008 2.391507,0.003 3.588927,-5.18e-4 l 3.311426,-5.16e-4 c 0.7652,0.005 1.52908,0.01465 2.2903,0.03256 4.32688,0.246118 8.45386,3.179507 9.78596,7.359239 1.56778,4.514361 -0.0797,10.030601 -4.14651,12.660725 -1.81347,1.296784 -4.01573,1.8933 -6.20944,1.967323 v -0.0016 h -1.00408 c -0.0144,-5.29e-4 -0.029,-4.62e-4 -0.0434,-9.99e-4 -1.331,1.43e-4 -2.66202,3.18e-4 -3.99304,5.19e-4 -1.803726,1.454539 -3.964811,2.460907 -6.252332,2.805511 v 0.001 c 2.269098,0.341838 4.413491,1.335249 6.208406,2.770889 l 6.870376,-5.17e-4 -0.001,5.17e-4 c 2.92574,0.008 5.86013,0.003 8.7943,-5.17e-4 h 3.20032 v -0.0036 c 13.70579,2.81e-4 24.81399,11.103167 24.81399,24.803137 0,13.70014 -11.10848,24.80469 -24.81451,24.80469 v -0.0103 h -13.92473 v 2.91404 l 7.25485,-5.2e-4 -5.1e-4,5.2e-4 c 1.6271,0.008 3.25886,0.003 4.89065,-5.2e-4 h 1.77974 v 0.005 c 15.31167,0 27.72854,-12.40823 27.72854,-27.71252 0,-15.30412 -12.41659,-27.712757 -27.72802,-27.713038 h -11.06134 c 5.77574,-1.172738 10.64847,-6.319943 11.10991,-12.272634 0.63765,-5.981209 -3.00413,-12.204979 -8.67544,-14.34021 -1.63348,-0.653369 -3.39238,-0.975957 -5.15265,-0.979267 v -0.0021 H 91.341854 Z" />
    <path
       style="display:inline;fill:#000000;fill-opacity:1;stroke:none;stroke-width:0.276029px;stroke-linecap:butt;stroke-linejoin:miter;stroke-opacity:1"
       d="M 110.64628,105 H 99.353722"
       id="path9445" />
  </g>
</svg>
