<?xml version="1.0" standalone="no"?>
<!DOCTYPE svg PUBLIC "-//W3C//DTD SVG 20010904//EN"
 "http://www.w3.org/TR/2001/REC-SVG-20010904/DTD/svg10.dtd">
<svg version="1.0" xmlns="http://www.w3.org/2000/svg"
 width="298.000000pt" height="580.000000pt" viewBox="0 0 298.000000 580.000000"
 preserveAspectRatio="xMidYMid meet">

<g transform="translate(0.000000,580.000000) scale(0.100000,-0.100000)"
fill="#000000" stroke="none">
<path d="M579 5769 c-36 -19 -94 -37 -165 -50 -92 -17 -171 -37 -267 -66 -16
-5 -17 -14 -12 -82 4 -42 10 -85 15 -96 8 -19 21 -100 55 -327 9 -57 20 -128
25 -158 5 -30 17 -109 25 -175 9 -66 22 -155 29 -197 l12 -78 -76 -67 c-176
-157 -229 -291 -210 -536 8 -105 16 -137 61 -232 5 -11 16 -40 24 -64 25 -73
137 -170 197 -171 13 -1 41 -8 63 -16 163 -61 378 -96 521 -84 58 5 64 4 64
-13 0 -11 -6 -31 -14 -45 -7 -15 -23 -48 -35 -74 -21 -48 -35 -59 -44 -35 -2
6 -8 9 -12 5 -4 -4 -3 -14 4 -21 8 -11 4 -27 -20 -73 -17 -32 -38 -66 -46 -76
-20 -23 -123 -227 -123 -244 0 -9 -18 -44 -39 -80 -44 -73 -60 -123 -42 -133
8 -5 4 -22 -14 -55 -29 -55 -34 -86 -10 -66 24 20 6 -21 -19 -43 -16 -14 -18
-20 -7 -26 11 -7 11 -18 1 -59 -24 -103 -11 -359 22 -432 12 -25 23 -69 26
-97 4 -48 13 -65 25 -45 2 4 2 2 1 -5 -2 -6 7 -27 19 -45 41 -60 41 -59 10
-46 -15 7 -30 15 -33 19 -9 10 -40 19 -40 11 0 -5 6 -14 13 -21 15 -17 7 -13
-69 33 -64 39 -113 45 -122 17 -3 -10 1 -12 17 -8 16 4 21 2 18 -8 -4 -9 1
-11 14 -8 11 3 39 -8 67 -26 27 -17 55 -31 62 -31 7 0 11 -3 7 -6 -3 -3 -26 2
-50 11 -25 9 -53 15 -63 13 -17 -3 53 -55 157 -116 22 -13 46 -37 54 -53 9
-16 20 -29 25 -29 15 0 12 36 -5 50 -8 7 -15 16 -15 21 0 15 37 10 50 -6 18
-21 32 -19 25 5 -4 13 -2 20 7 20 8 0 18 -18 24 -42 5 -23 14 -43 20 -45 14
-5 28 28 15 36 -5 3 -11 15 -13 26 -3 18 2 20 41 18 24 -1 47 -6 50 -11 10
-14 40 -22 46 -12 3 5 17 4 33 -2 37 -16 38 -18 24 -27 -10 -6 -10 -15 -3 -34
15 -38 31 -34 31 7 l0 34 52 -16 c29 -9 54 -17 56 -18 1 -1 -11 -24 -29 -52
l-31 -50 20 -44 c15 -36 28 -48 61 -61 43 -18 48 -26 29 -45 -6 -6 -11 -32
-12 -57 -1 -41 3 -50 36 -81 21 -19 48 -34 61 -34 33 0 39 -9 22 -34 -27 -37
-19 -73 22 -101 21 -14 47 -25 57 -25 14 0 8 -6 -18 -20 -37 -18 -40 -18 -53
-2 -13 15 -14 15 -9 -8 3 -14 6 -45 6 -69 0 -37 6 -49 39 -82 25 -26 48 -39
65 -39 33 0 63 -27 68 -60 4 -33 41 -50 112 -50 l59 0 -27 -21 c-30 -24 -35
-64 -8 -77 28 -14 201 -5 228 13 21 14 27 13 70 -10 26 -14 54 -25 62 -25 12
0 13 -3 5 -11 -8 -8 -22 -5 -51 10 -37 19 -47 20 -94 10 -66 -14 -88 -38 -88
-95 0 -34 5 -47 26 -63 61 -48 149 -49 198 -4 20 19 31 22 39 14 6 -6 19 -11
29 -11 29 0 20 -14 -20 -32 -60 -28 -104 -74 -100 -105 4 -34 59 -73 102 -73
102 1 190 109 136 167 -24 26 -25 33 -6 33 7 0 26 10 41 22 27 21 28 21 16 0
-15 -28 -13 -103 3 -125 7 -9 23 -17 36 -17 17 0 21 -4 15 -17 -17 -39 -17
-81 1 -108 17 -25 21 -27 68 -21 58 6 96 39 96 83 0 18 4 24 15 19 19 -7 126
64 148 98 10 14 17 36 17 48 0 15 9 27 26 35 22 10 24 10 19 -7 -5 -15 1 -21
32 -29 53 -15 109 -14 142 4 32 16 81 70 81 88 0 7 13 20 29 29 17 9 38 34 48
55 17 34 18 43 6 71 -14 36 -74 71 -82 49 -2 -6 -15 -23 -28 -37 -13 -14 -26
-35 -29 -47 -4 -14 -14 -23 -25 -23 -17 0 -16 5 11 42 16 22 30 52 30 65 0 38
-26 79 -59 92 -25 11 -33 10 -56 -5 -26 -17 -28 -17 -39 2 -6 10 -11 28 -11
39 0 21 -7 22 -62 10 -30 -7 -33 -5 -33 16 0 40 -14 50 -79 56 -33 3 -61 11
-61 17 0 5 -7 30 -16 53 l-17 43 -77 0 c-54 0 -81 -4 -89 -14 -7 -8 -16 -42
-22 -76 -9 -58 -8 -65 12 -86 31 -33 73 -48 97 -35 32 17 42 13 42 -14 0 -25
0 -26 -64 -19 -82 8 -127 0 -160 -31 -14 -13 -28 -20 -31 -15 -3 5 5 14 17 21
60 32 78 100 36 139 -12 11 -25 20 -30 20 -4 0 -8 5 -8 10 0 6 6 10 13 10 20
0 46 32 53 66 7 37 -16 60 -72 72 -38 9 -38 10 -14 19 14 5 56 8 93 7 57 -1
67 1 62 14 -3 8 0 20 6 28 5 7 9 28 7 46 -2 25 -10 36 -33 47 -31 15 -30 17
27 35 9 3 26 23 37 44 26 51 19 103 -20 141 -25 26 -27 30 -14 47 20 26 18 68
-3 86 -28 26 -79 48 -108 48 -22 0 -25 2 -14 15 9 11 22 14 47 9 28 -5 32 -4
27 10 -4 11 9 32 44 65 27 26 57 60 66 73 12 18 23 24 36 21 17 -4 18 -11 13
-49 -7 -56 13 -60 22 -4 6 36 25 67 25 40 0 -6 5 -8 11 -5 7 5 9 -8 4 -41 l-6
-49 26 50 c52 101 57 106 103 127 26 11 63 20 82 19 45 0 72 8 65 20 -4 5 -19
9 -35 9 -16 0 -30 7 -34 16 -5 12 -16 15 -41 12 -27 -3 -32 -1 -23 9 6 8 8 16
4 20 -3 3 -8 4 -9 2 -2 -2 -24 -31 -48 -63 -43 -58 -44 -59 -47 -31 -2 18 9
53 31 97 24 46 31 68 22 68 -8 0 -17 -5 -20 -11 -5 -7 -13 -5 -24 5 -13 12
-20 13 -29 4 -16 -16 -17 45 -1 73 16 31 39 260 39 394 -1 135 -15 231 -54
352 -25 80 -98 213 -117 213 -5 0 -9 6 -9 13 0 6 -18 32 -40 57 -32 35 -40 52
-40 82 0 21 -5 38 -11 38 -7 0 -9 -10 -5 -27 l6 -28 -26 30 c-73 85 -136 211
-127 256 4 22 14 26 131 52 70 15 150 30 177 34 68 8 235 51 260 67 11 7 37
16 58 19 82 13 176 118 184 205 6 58 -19 192 -53 291 -30 86 -66 155 -142 266
-94 140 -122 178 -164 224 -41 46 -116 154 -194 279 -83 133 -302 354 -409
413 -42 23 -79 48 -82 55 -3 8 -18 14 -34 14 -16 0 -62 9 -102 19 -82 22 -167
27 -280 16 -67 -7 -77 -10 -72 -25 4 -13 -2 -19 -21 -24 -15 -4 -86 -37 -157
-72 -127 -64 -205 -117 -337 -231 -36 -30 -78 -67 -95 -81 -16 -14 -54 -47
-83 -74 -72 -64 -80 -63 -71 12 4 33 7 126 8 207 0 80 5 172 11 203 6 31 17
135 25 231 9 96 18 193 21 217 6 45 -2 112 -14 112 -4 -1 -32 -14 -63 -31z
m41 -69 c0 -22 -4 -40 -10 -40 -5 0 -9 3 -9 8 4 21 -3 32 -18 32 -15 0 -13 4
7 20 14 11 26 20 28 20 1 0 2 -18 2 -40z m-94 -28 c-1 -15 -10 -41 -19 -57
l-16 -30 -1 42 c0 25 6 48 16 57 21 22 24 20 20 -12z m-76 -36 c0 -51 -5 -54
-102 -65 -57 -7 -57 -7 -68 22 -5 17 -10 33 -10 37 0 10 104 39 173 49 4 1 7
-19 7 -43z m117 -28 c-2 -13 -4 -3 -4 22 0 25 2 35 4 23 2 -13 2 -33 0 -45z
m-333 0 c19 -27 21 -58 4 -58 -7 0 -23 -3 -34 -6 -18 -5 -22 0 -27 28 -4 23 0
37 11 46 22 17 29 15 46 -10z m363 -85 c-3 -10 -5 -2 -5 17 0 19 2 27 5 18 2
-10 2 -26 0 -35z m-156 -24 c-7 -47 -31 -67 -31 -25 0 33 18 79 28 72 5 -3 6
-24 3 -47z m106 4 c-3 -10 -5 -2 -5 17 0 19 2 27 5 18 2 -10 2 -26 0 -35z
m-169 -12 l3 -39 -51 -12 c-28 -7 -52 -11 -54 -9 -2 2 -6 23 -10 46 -7 46 -4
47 80 52 28 1 30 -1 32 -38z m132 24 c0 -8 -7 -15 -15 -15 -16 0 -20 12 -8 23
11 12 23 8 23 -8z m-272 -59 c3 -36 -11 -61 -29 -50 -10 6 -21 73 -14 85 15
24 40 3 43 -35z m190 -103 l-3 -58 -37 -3 -38 -3 0 60 0 61 40 0 41 0 -3 -57z
m-114 15 c3 -13 6 -39 6 -59 0 -32 -4 -37 -27 -42 -16 -3 -35 -8 -44 -12 -12
-4 -18 6 -27 47 -11 47 -11 53 5 62 15 9 47 20 74 25 4 0 9 -9 13 -21z m185
-200 c-1 -146 -4 -211 -10 -188 -10 42 -7 410 4 410 4 0 7 -100 6 -222z m1181
112 c25 -7 56 -17 69 -22 l24 -9 -21 -22 c-22 -23 -29 -99 -16 -162 14 -66
115 -105 186 -71 43 21 72 71 66 114 l-4 31 25 -19 c14 -10 57 -51 95 -91 38
-41 90 -96 116 -124 26 -27 91 -115 143 -195 53 -80 114 -167 136 -195 22 -27
59 -77 82 -110 23 -33 49 -66 56 -73 7 -7 13 -18 13 -25 0 -6 11 -22 24 -36
50 -54 156 -290 156 -348 0 -14 5 -43 12 -64 8 -30 8 -45 -1 -65 -9 -20 -9
-30 0 -40 9 -11 9 -21 0 -41 -16 -38 -72 -98 -80 -86 -5 8 -40 26 -121 61
l-25 11 23 0 c44 2 112 50 112 80 0 11 -7 8 -24 -11 -14 -14 -45 -34 -70 -43
l-46 -18 -61 37 c-33 20 -65 36 -70 36 -21 0 -6 -17 39 -42 33 -19 41 -28 26
-28 -11 0 -46 16 -78 35 -66 40 -66 40 -66 22 0 -14 77 -67 97 -67 7 0 13 -4
13 -8 0 -8 43 -32 57 -32 3 0 -1 8 -8 18 -13 15 -12 16 3 4 9 -8 22 -11 28 -7
11 7 105 -23 97 -31 -2 -2 -21 3 -42 11 -38 17 -65 14 -65 -6 0 -6 7 -8 17 -5
18 7 143 -31 143 -44 0 -24 -161 -20 -209 4 -29 16 -149 47 -321 84 -55 11
-127 16 -272 15 -195 0 -198 0 -199 21 l-2 21 -4 -21 c-4 -21 -10 -22 -241
-28 -212 -7 -360 -15 -562 -32 -102 -8 -364 -75 -430 -109 -17 -9 -40 -13 -51
-10 -14 5 -26 0 -38 -14 -29 -33 -147 -27 -190 11 -54 48 -63 60 -92 131 -25
63 -30 89 -35 202 -4 86 -1 165 9 232 8 64 10 104 4 106 -6 2 -5 11 2 24 6 12
8 29 5 37 -11 28 62 108 229 254 32 28 74 58 92 67 19 8 39 25 45 35 17 33 40
25 40 -13 0 -44 21 -61 96 -77 81 -16 93 -12 110 35 12 35 12 45 -2 85 -9 25
-21 51 -27 58 -7 9 -2 21 18 42 28 29 167 130 179 130 22 0 -4 -41 -60 -96
-72 -69 -84 -95 -19 -39 39 33 40 34 48 12 7 -18 2 -27 -20 -45 -45 -36 -83
-76 -83 -87 0 -5 6 -3 13 5 30 38 108 92 123 86 34 -13 92 14 130 60 23 27 34
48 27 52 -5 4 -13 21 -16 38 -7 38 3 48 88 92 99 50 113 50 75 2 -14 -18 -20
-41 -20 -84 0 -114 40 -184 132 -230 42 -21 66 -26 129 -26 153 0 217 29 274
126 51 87 39 218 -27 299 -29 35 -151 105 -183 105 -8 0 -15 5 -15 10 0 6 -22
10 -49 10 -57 0 -103 -27 -169 -100 -24 -27 -54 -51 -67 -54 -29 -8 -131 -66
-164 -95 -13 -12 -28 -21 -33 -21 -19 0 -5 26 39 73 26 28 42 52 36 54 -7 3
-28 -13 -47 -35 -19 -21 -63 -53 -98 -71 -86 -46 -155 -91 -207 -137 -43 -38
-91 -61 -91 -43 0 5 4 9 9 9 4 0 21 12 37 26 160 143 272 237 345 285 76 51
244 136 344 174 39 15 81 33 95 40 30 17 143 14 210 -5z m-1265 -28 c17 -12
18 -72 2 -72 -14 0 -27 28 -27 63 0 18 9 21 25 9z m152 -49 c-3 -10 -5 -2 -5
17 0 19 2 27 5 18 2 -10 2 -26 0 -35z m-214 30 c2 -5 7 -20 11 -35 6 -27 5
-28 -29 -28 -24 0 -35 5 -35 14 0 8 -3 21 -6 29 -3 10 2 17 13 20 29 8 42 7
46 0z m1448 -17 c-10 -12 -8 -17 8 -25 26 -14 32 -14 30 2 -7 54 26 39 58 -27
l24 -51 -5 40 -5 40 24 -30 c27 -32 31 -70 14 -108 -18 -40 -81 -61 -107 -35
-10 10 -15 10 -21 -1 -6 -9 -11 -10 -15 -2 -4 6 -2 11 3 11 20 0 11 15 -19 32
-28 16 -30 21 -30 74 0 39 5 63 17 76 19 21 41 25 24 4z m-1531 -48 c0 -10 -5
-18 -10 -18 -15 0 -23 27 -16 47 6 15 8 15 16 3 6 -8 10 -23 10 -32z m257 -50
c-3 -7 -5 -2 -5 12 0 14 2 19 5 13 2 -7 2 -19 0 -25z m-103 5 c-1 -7 -2 -24
-2 -38 -2 -21 -7 -25 -32 -25 -27 0 -30 3 -30 34 0 19 6 36 13 39 23 8 52 2
51 -10z m-94 -33 c0 -24 -6 -33 -26 -40 -38 -15 -41 -13 -46 25 -3 28 0 35 17
38 50 10 55 8 55 -23z m1164 -30 c39 -15 31 -29 -9 -16 -19 7 -38 15 -41 19
-11 10 21 8 50 -3z m-957 -62 c-3 -7 -5 -2 -5 12 0 14 2 19 5 13 2 -7 2 -19 0
-25z m961 13 c12 -10 19 -21 16 -24 -3 -3 2 -19 10 -36 20 -38 20 -41 -2 -41
-11 0 -24 12 -30 26 -7 14 -8 23 -2 19 13 -8 13 -4 -5 39 -17 41 -16 43 13 17z
m109 -69 c14 -58 -32 -24 -54 39 -7 19 -13 40 -13 45 1 15 60 -60 67 -84z
m-1237 34 c0 -35 -20 -61 -41 -54 -7 2 -14 23 -16 45 -3 37 -1 42 19 45 33 6
38 1 38 -36z m50 4 c0 -22 -4 -40 -10 -40 -5 0 -10 18 -10 40 0 22 5 40 10 40
6 0 10 -18 10 -40z m896 4 c-4 -9 -9 -15 -11 -12 -3 3 -3 13 1 22 4 9 9 15 11
12 3 -3 3 -13 -1 -22z m149 17 c3 -5 1 -12 -5 -16 -5 -3 -10 1 -10 9 0 18 6
21 15 7z m170 -34 c8 -17 12 -34 8 -38 -5 -3 -18 13 -30 37 -15 30 -18 41 -8
37 8 -3 21 -19 30 -36z m-249 -22 c0 -35 -5 -55 -12 -55 -14 0 -26 42 -19 64
3 9 7 23 10 31 10 34 22 12 21 -40z m-46 10 c-6 -16 -9 -34 -6 -42 5 -13 -39
-31 -50 -20 -3 3 9 25 27 51 36 50 45 54 29 11z m-1063 3 c-3 -8 -6 -5 -6 6
-1 11 2 17 5 13 3 -3 4 -12 1 -19z m1198 -48 c3 -5 1 -10 -4 -10 -6 0 -11 5
-11 10 0 6 2 10 4 10 3 0 8 -4 11 -10z m-1047 -52 c-3 -39 -6 -43 -31 -46 -25
-3 -27 -1 -21 22 3 15 1 32 -6 40 -9 12 -6 15 17 19 15 2 32 5 36 6 5 0 7 -18
5 -41z m582 -4 c0 -28 -28 -22 -39 9 -7 18 -8 18 -24 2 -9 -9 -17 -12 -17 -6
0 16 30 28 56 23 17 -3 24 -11 24 -28z m-665 -16 c0 -36 -3 -43 -21 -46 -17
-2 -23 4 -31 37 -11 43 -7 49 32 50 18 1 21 -5 20 -41z m205 -23 l-8 -40 -1
36 c0 20 2 39 6 42 11 11 11 4 3 -38z m1010 13 c0 -13 -7 -32 -15 -42 -12 -16
-17 -17 -30 -6 -32 26 -17 50 43 69 1 1 2 -9 2 -21z m-614 -16 c7 12 14 13 37
3 27 -11 27 -12 9 -28 -10 -9 -32 -19 -48 -23 -29 -5 -29 -5 -30 37 -1 39 -1
41 11 19 10 -19 14 -20 21 -8z m659 -42 c-10 -11 -26 -20 -36 -20 -16 0 -17 2
-3 28 7 15 14 34 14 42 0 11 6 9 22 -7 21 -22 21 -23 3 -43z m-195 34 c0 -8
-5 -12 -10 -9 -6 4 -8 11 -5 16 9 14 15 11 15 -7z m101 -44 c5 0 9 -4 9 -10 0
-5 -11 -10 -25 -10 -23 0 -25 4 -25 43 l0 42 16 -32 c9 -18 20 -33 25 -33z
m-119 26 c24 -34 34 -76 17 -76 -11 0 -11 -3 1 -10 8 -5 11 -10 5 -10 -5 0
-17 5 -25 10 -10 6 -11 10 -2 10 6 0 12 7 12 15 0 9 -9 15 -21 15 -15 0 -19
-5 -15 -15 3 -9 0 -15 -7 -15 -11 0 -24 22 -55 92 -2 5 14 8 35 8 28 -1 42 -7
55 -24z m-885 -18 c-3 -8 -6 -5 -6 6 -1 11 2 17 5 13 3 -3 4 -12 1 -19z m-77
-18 c0 -17 -5 -30 -12 -30 -8 0 -13 13 -13 30 0 17 5 30 13 30 7 0 12 -13 12
-30z m-53 -15 c3 -17 -1 -25 -12 -25 -15 0 -22 40 -8 53 9 10 17 0 20 -28z
m-60 -17 c-3 -7 -5 -2 -5 12 0 14 2 19 5 13 2 -7 2 -19 0 -25z m293 -7 c0 -6
-4 -12 -10 -16 -5 -3 -7 -12 -4 -19 3 -7 -6 -30 -20 -50 l-25 -37 -3 28 c-2
17 6 43 21 66 23 35 41 48 41 28z m897 3 c-3 -3 -12 -4 -19 -1 -8 3 -5 6 6 6
11 1 17 -2 13 -5z m-863 -11 c4 -4 14 -8 23 -8 31 0 50 -123 21 -141 -7 -4
-99 21 -117 33 -4 2 37 61 56 81 15 16 17 26 3 17 -5 -3 -10 1 -10 9 0 17 12
21 24 9z m-221 -29 c8 -9 -11 -44 -23 -44 -6 0 -10 11 -10 25 0 23 18 34 33
19z m-63 -23 c0 -15 -18 -31 -35 -31 -6 0 -13 39 -7 44 13 14 42 5 42 -13z
m-276 -458 c-11 -90 -34 -216 -40 -222 -13 -12 4 156 20 212 10 31 19 57 22
57 2 0 1 -21 -2 -47z m-9 -288 c0 -103 -16 -116 -23 -18 -3 48 9 113 20 113 2
0 3 -43 3 -95z m1716 -277 c-3 -21 -6 -26 -9 -15 -3 17 3 47 11 47 2 0 1 -15
-2 -32z m-161 8 c0 -8 3 -21 6 -30 3 -9 1 -16 -5 -16 -6 0 -11 7 -11 15 0 8
-4 15 -10 15 -5 0 -10 7 -10 15 0 8 7 15 15 15 8 0 15 -6 15 -14z m-303 -33
c-3 -10 -5 -4 -5 12 0 17 2 24 5 18 2 -7 2 -21 0 -30z m613 18 c0 -11 -4 -23
-10 -26 -6 -4 -10 5 -10 19 0 14 5 26 10 26 6 0 10 -9 10 -19z m-730 -12 c0
-11 -4 -18 -10 -14 -5 3 -7 12 -3 20 7 21 13 19 13 -6z m72 -28 c0 -23 -2 -45
-6 -48 -3 -4 -6 18 -6 47 0 29 3 51 6 48 3 -3 5 -25 6 -47z m192 36 c10 -10
15 -73 19 -238 6 -218 23 -416 37 -432 4 -4 3 21 -2 56 -9 72 -26 570 -20 604
l4 23 19 -24 c11 -13 19 -27 19 -29 0 -3 5 -18 11 -34 6 -15 13 -45 14 -66 7
-79 17 -49 13 36 -2 48 -2 87 2 87 4 0 16 -10 27 -22 15 -17 24 -46 32 -103
l10 -80 -4 88 c-2 56 0 87 7 87 5 0 8 7 4 15 -3 8 -2 15 3 15 4 0 10 -71 13
-158 3 -88 9 -166 14 -175 6 -10 8 23 6 85 -3 76 -1 103 10 109 11 8 11 11 -1
18 -13 8 -13 12 0 27 9 11 9 15 2 10 -7 -4 -13 -2 -13 3 0 6 4 11 10 11 5 0 7
7 3 16 -4 12 -2 15 8 12 17 -6 28 -58 39 -188 l9 -105 -3 120 c-3 130 2 176
22 183 9 3 12 -32 14 -150 2 -115 3 -129 5 -55 2 53 8 97 13 97 15 0 24 -23
23 -55 l-2 -30 8 33 c14 53 19 48 27 -26 5 -54 10 -69 20 -65 11 4 14 -7 14
-52 0 -35 4 -54 10 -50 6 3 10 18 11 33 1 15 9 -20 20 -78 10 -58 23 -115 29
-128 5 -13 10 -37 10 -55 l0 -32 15 29 c10 18 12 33 6 40 -5 6 -12 48 -16 94
-7 72 -6 82 8 76 9 -3 20 -27 27 -57 6 -29 18 -87 27 -129 9 -43 20 -78 24
-78 4 0 3 17 -1 38 -12 55 -19 151 -9 127 4 -11 10 -37 14 -57 3 -21 11 -38
17 -38 6 0 8 9 4 23 -4 12 -9 47 -12 77 -3 30 -7 71 -9 90 -3 25 -2 31 5 20 5
-8 10 -39 10 -68 0 -35 5 -54 14 -58 10 -4 13 -30 12 -114 0 -61 3 -106 8
-103 5 4 6 -11 2 -33 -4 -22 -3 -34 2 -26 5 8 13 -12 21 -55 20 -105 53 -234
58 -229 5 5 1 24 -37 197 -12 52 -20 106 -18 120 3 16 8 4 17 -39 8 -34 18
-65 22 -68 12 -7 11 3 -7 61 -16 53 -29 235 -14 200 5 -11 9 -30 9 -42 1 -13
6 -22 12 -20 7 1 20 -34 31 -83 11 -47 24 -94 29 -105 9 -19 8 -3 -6 183 l-5
67 27 -32 c23 -27 30 -49 40 -120 6 -49 18 -128 26 -178 21 -124 30 -240 21
-267 -7 -22 -7 -22 -15 -3 -4 11 -8 40 -8 65 -2 60 -10 90 -27 90 -17 0 -17
-10 -3 -47 6 -16 10 -89 10 -170 -1 -113 -5 -152 -20 -190 l-18 -47 -6 45 c-4
24 -6 95 -6 157 0 63 -2 116 -5 119 -3 4 -7 1 -7 -5 -1 -7 -3 -16 -4 -22 -1
-5 -4 -58 -5 -117 -1 -60 -4 -100 -7 -90 -3 10 -11 16 -18 13 -16 -6 -33 76
-42 207 -6 95 -23 136 -23 57 0 -49 27 -221 40 -256 12 -31 13 -91 2 -98 -10
-6 -33 109 -26 128 3 7 -1 16 -9 19 -18 7 -41 99 -33 132 6 24 -11 65 -27 65
-4 0 -5 -15 -2 -34 4 -19 4 -45 -1 -58 -6 -21 -8 -20 -20 17 l-13 40 4 -35 c3
-19 8 -73 11 -120 l6 -85 -43 63 c-54 80 -127 154 -174 176 -24 12 -73 19
-144 23 l-108 6 9 45 c11 59 15 62 24 18 8 -46 32 -45 48 1 17 49 26 50 26 5
0 -31 4 -42 15 -42 24 0 26 127 2 142 -19 12 -22 10 -44 -28 -19 -33 -21 -35
-27 -16 -10 31 -34 35 -51 8 -9 -13 -20 -50 -26 -84 l-11 -60 -45 -13 c-25 -6
-61 -20 -81 -31 -20 -10 -46 -18 -58 -18 -12 0 -24 -3 -26 -8 -1 -4 -28 -24
-59 -44 -54 -36 -121 -113 -149 -173 -8 -16 -19 -37 -25 -45 -6 -8 -26 -64
-44 -125 -40 -133 -42 -140 -36 -95 11 77 16 255 7 240 -11 -16 -31 -159 -33
-224 -1 -35 -2 -38 -9 -16 -4 14 -8 88 -9 164 -1 146 -9 170 -21 64 l-7 -63
-2 75 c-2 41 -6 95 -10 120 l-7 45 -6 -40 c-4 -22 -10 -70 -14 -107 -8 -79
-24 -91 -24 -19 0 28 -4 53 -10 56 -6 4 -10 -43 -10 -134 0 -77 -4 -142 -9
-145 -5 -3 -12 46 -16 109 -4 63 -11 115 -16 115 -6 0 -7 -29 -5 -67 4 -47 3
-59 -3 -38 -5 17 -9 55 -10 85 -1 30 -8 69 -16 85 -13 27 -14 15 -9 -120 5
-140 18 -305 29 -364 3 -14 -2 -8 -10 14 -24 60 -54 316 -55 468 0 42 -4 77
-9 77 -5 0 -7 -61 -5 -142 3 -94 1 -136 -5 -123 -13 28 -14 0 -1 -44 6 -23 6
-39 -1 -50 -8 -12 -9 -13 -6 -1 2 8 -2 31 -10 50 -8 19 -16 72 -17 118 -3 87
10 114 17 35 2 -27 3 -19 2 16 -2 38 -8 67 -15 71 -13 8 -10 73 6 129 5 18 4
23 -7 19 -14 -5 -26 -58 -36 -162 -4 -51 4 -141 24 -255 4 -21 2 -32 -4 -28
-14 9 -24 72 -31 215 -4 70 -3 123 2 125 12 4 -2 77 -14 77 -10 0 -16 -99 -11
-175 2 -21 0 -64 -4 -95 -6 -44 -9 -51 -16 -33 -4 12 -9 44 -9 70 -1 26 -4 67
-7 90 -4 35 -7 40 -18 29 -7 -7 -15 -24 -18 -37 -2 -13 -5 2 -6 33 -1 65 15
198 30 243 5 17 21 95 34 174 14 79 27 146 30 149 9 9 6 -71 -4 -106 -6 -20
-6 -30 0 -27 5 4 9 -7 9 -24 0 -16 4 -32 9 -35 5 -4 7 19 4 54 -4 44 -1 68 11
95 9 19 14 39 11 45 -3 5 4 14 15 20 11 6 20 21 20 34 0 19 5 23 31 23 31 0
31 -1 24 -43 -3 -24 -2 -45 4 -48 16 -10 22 29 16 108 -6 75 16 209 37 231 6
6 7 1 4 -15 -3 -14 -13 -54 -21 -90 -8 -36 -15 -74 -15 -85 0 -45 28 21 40 95
12 65 14 71 20 44 4 -17 4 -67 0 -110 -4 -44 -5 -81 -3 -83 7 -9 14 8 20 45 3
22 10 42 16 45 5 4 9 47 8 97 -1 54 2 93 9 97 6 4 10 -19 10 -69 0 -44 4 -76
10 -76 6 0 10 19 11 43 0 23 6 71 13 107 9 49 14 59 18 42 4 -13 4 -40 1 -59
-5 -28 -3 -34 7 -28 10 6 11 -7 5 -64 -4 -44 -3 -76 3 -84 6 -6 12 -25 14 -42
3 -16 4 20 4 80 -1 61 2 124 7 140 5 22 5 25 -2 10 -7 -14 -9 3 -9 60 1 73 2
75 8 30 8 -57 12 -51 11 15 -1 31 1 41 8 31 7 -11 10 -10 13 5 2 10 2 -46 0
-126 -3 -108 -1 -142 7 -134 15 14 23 154 8 154 -5 0 -3 8 6 18 10 10 16 29
16 43 -1 21 -2 21 -9 -6 -6 -25 -8 -20 -8 25 0 42 2 50 9 35 7 -15 8 -10 5 22
-2 23 0 43 5 45 5 2 14 41 20 88 18 150 23 122 20 -135 -1 -88 -4 -176 -7
-195 -4 -26 -3 -31 5 -20 6 8 11 52 11 97 0 45 4 84 9 87 12 8 22 -20 14 -41
-4 -11 -3 -14 6 -9 7 5 11 24 10 45 -3 63 13 241 22 235 5 -3 9 -43 9 -89 0
-46 5 -96 11 -112 l12 -28 7 25 c6 18 9 7 10 -40 2 -92 8 -65 15 81 5 98 10
126 21 126 10 0 14 -14 14 -54 0 -31 4 -53 11 -53 13 0 1 132 -12 140 -14 10
-22 67 -10 74 7 5 11 -4 11 -23 0 -16 4 -32 8 -35 5 -3 8 10 7 29 0 19 2 35 5
35 9 0 28 -144 30 -225 2 -110 10 -90 12 31 2 137 0 164 -13 181 -6 7 -8 20
-5 30 13 34 25 -4 32 -100 4 -53 11 -97 17 -97 9 0 3 117 -10 169 -4 17 -2 22
6 17 6 -4 11 -24 12 -44 1 -33 2 -34 9 -12 l8 25 1 -27 c1 -16 6 -28 12 -28 6
0 8 7 5 16 -10 26 -19 124 -12 124 4 0 13 -6 20 -13z m283 -49 c-2 -13 -4 -3
-4 22 0 25 2 35 4 23 2 -13 2 -33 0 -45z m80 25 c-3 -10 -5 -4 -5 12 0 17 2
24 5 18 2 -7 2 -21 0 -30z m-707 -27 c-7 -7 -10 1 -9 25 0 32 1 33 10 10 6
-16 6 -28 -1 -35z m-112 13 c-2 -7 -10 -4 -18 7 -9 11 -10 15 -2 10 7 -4 12
-2 13 6 0 10 2 10 6 1 2 -7 3 -18 1 -24z m1174 9 c-9 -9 -15 -9 -24 0 -9 9 -7
12 12 12 19 0 21 -3 12 -12z m-1312 -15 c0 -10 -5 -25 -10 -33 -8 -12 -12 -12
-28 5 -18 20 -18 20 7 32 14 6 27 12 29 12 1 1 2 -7 2 -16z m1288 2 c12 -11
-10 -33 -40 -39 -31 -6 -32 -8 -15 -21 18 -13 18 -14 -2 -25 -19 -10 -21 -8
-21 22 0 18 3 44 7 56 5 20 10 23 36 18 17 -3 33 -8 35 -11z m-1071 -27 c-3
-7 -5 -2 -5 12 0 14 2 19 5 13 2 -7 2 -19 0 -25z m830 10 c-3 -8 -6 -5 -6 6
-1 11 2 17 5 13 3 -3 4 -12 1 -19z m274 -1 c-10 -9 -11 -8 -5 6 3 10 9 15 12
12 3 -3 0 -11 -7 -18z m162 16 c-7 -2 -21 -2 -30 0 -10 3 -4 5 12 5 17 0 24
-2 18 -5z m-1619 -48 c-9 -14 -23 -25 -30 -25 -24 0 -12 32 16 43 28 10 31 7
14 -18z m175 11 c9 -11 10 -20 1 -36 -10 -18 -14 -19 -27 -9 -8 8 -11 15 -5
17 5 1 8 12 5 22 -6 23 9 26 26 6z m1373 -2 c-13 -9 -26 -13 -30 -9 -8 8 17
25 38 25 9 0 6 -6 -8 -16z m-1592 -4 c0 -5 -4 -10 -10 -10 -5 0 -10 5 -10 10
0 6 5 10 10 10 6 0 10 -4 10 -10z m118 -9 c3 -10 0 -12 -12 -8 -9 4 -16 2 -16
-3 0 -6 -7 -10 -15 -10 -13 0 -14 4 -5 21 12 22 41 22 48 0z m479 -13 c-3 -7
-5 -2 -5 12 0 14 2 19 5 13 2 -7 2 -19 0 -25z m550 10 c-3 -8 -6 -5 -6 6 -1
11 2 17 5 13 3 -3 4 -12 1 -19z m673 15 c-14 -3 -29 -9 -34 -14 -6 -5 -17 -9
-25 -9 -11 0 -10 4 5 15 10 8 33 14 49 13 27 -1 27 -1 5 -5z m-276 -11 c2 -4
-6 -9 -19 -10 -13 -1 -27 3 -30 8 -3 6 5 10 19 10 14 0 27 -4 30 -8z m156 -7
c-7 -8 -17 -15 -23 -15 -6 0 -2 7 9 15 25 19 30 19 14 0z m-513 -62 c-2 -16
-4 -5 -4 22 0 28 2 40 4 28 2 -13 2 -35 0 -50z m40 30 c-3 -10 -5 -4 -5 12 0
17 2 24 5 18 2 -7 2 -21 0 -30z m-880 -35 c-2 -13 -4 -3 -4 22 0 25 2 35 4 23
2 -13 2 -33 0 -45z m920 -5 c-2 -16 -4 -5 -4 22 0 28 2 40 4 28 2 -13 2 -35 0
-50z m368 57 c-11 -5 -27 -9 -35 -9 -9 0 -8 4 5 9 11 5 27 9 35 9 9 0 8 -4 -5
-9z m-1701 -15 c-6 -16 -24 -21 -24 -7 0 11 11 22 21 22 5 0 6 -7 3 -15z m483
-37 c-2 -13 -4 -5 -4 17 -1 22 1 32 4 23 2 -10 2 -28 0 -40z m160 20 c-3 -7
-5 -2 -5 12 0 14 2 19 5 13 2 -7 2 -19 0 -25z m-832 12 c3 -5 -1 -10 -9 -10
-9 0 -16 5 -16 10 0 6 4 10 9 10 6 0 13 -4 16 -10z m393 -3 c-6 -17 -50 -20
-71 -5 -16 12 -13 14 28 16 33 1 45 -2 43 -11z m-123 -17 c4 -6 -10 -10 -34
-10 -23 0 -41 5 -41 10 0 6 15 10 34 10 19 0 38 -4 41 -10z m291 -37 c7 -36
-12 -245 -27 -293 -13 -44 -10 87 5 185 8 56 10 100 5 120 -11 37 -11 37 1 30
5 -3 12 -22 16 -42z m-116 15 c0 -21 -13 -23 -29 -5 -12 16 -8 24 14 24 8 0
15 -9 15 -19z m208 -68 l0 -55 -8 51 c-4 29 -11 57 -14 63 -4 6 -4 16 0 23 12
19 23 -21 22 -82z m159 53 c-3 -10 -5 -4 -5 12 0 17 2 24 5 18 2 -7 2 -21 0
-30z m-461 6 c3 -5 -14 -9 -37 -9 -34 0 -39 3 -30 14 12 14 57 10 67 -5z m491
-56 c-2 -16 -4 -5 -4 22 0 28 2 40 4 28 2 -13 2 -35 0 -50z m-96 -23 l-9 -45
-1 37 c-1 20 2 44 6 54 11 29 14 2 4 -46z m726 38 c-3 -8 -6 -5 -6 6 -1 11 2
17 5 13 3 -3 4 -12 1 -19z m-870 -25 c-3 -10 -5 -4 -5 12 0 17 2 24 5 18 2 -7
2 -21 0 -30z m916 -103 c4 -54 3 -65 -4 -40 -4 19 -10 69 -13 110 -3 51 -2 64
4 40 4 -19 10 -69 13 -110z m69 105 c3 -14 1 -25 -3 -25 -5 0 -9 11 -9 25 0
14 2 25 4 25 2 0 6 -11 8 -25z m-135 -7 c-3 -8 -6 -5 -6 6 -1 11 2 17 5 13 3
-3 4 -12 1 -19z m80 -55 c-2 -16 -4 -3 -4 27 0 30 2 43 4 28 2 -16 2 -40 0
-55z m37 -30 c4 -34 3 -53 -4 -53 -6 0 -10 24 -10 57 0 68 5 66 14 -4z m23 25
c-3 -8 -6 -5 -6 6 -1 11 2 17 5 13 3 -3 4 -12 1 -19z m33 -55 c0 -13 -4 -23
-9 -23 -5 0 -11 -6 -14 -12 -2 -7 -3 -4 -1 7 2 11 4 34 4 50 0 23 3 27 10 15
5 -8 10 -25 10 -37z m-1053 -20 c-3 -10 -5 -4 -5 12 0 17 2 24 5 18 2 -7 2
-21 0 -30z m1110 -100 c-3 -10 -5 -4 -5 12 0 17 2 24 5 18 2 -7 2 -21 0 -30z
m-1201 11 c-3 -9 -6 -25 -7 -37 0 -21 -1 -21 -8 -2 -9 23 -3 55 11 55 6 0 7
-7 4 -16z m1264 -69 c0 -8 -4 -15 -10 -15 -5 0 -10 7 -10 15 0 8 5 15 10 15 6
0 10 -7 10 -15z m40 -57 c0 -19 -2 -20 -10 -8 -13 19 -13 30 0 30 6 0 10 -10
10 -22z m-1420 -73 c-4 -11 -3 -33 1 -49 10 -34 4 -48 -6 -16 -5 17 -10 19
-21 9 -18 -15 -18 2 1 27 8 10 15 27 15 38 0 16 -2 17 -17 5 -14 -12 -14 -9 3
19 18 32 19 32 25 10 3 -13 3 -32 -1 -43z m1337 8 c-3 -10 -5 -4 -5 12 0 17 2
24 5 18 2 -7 2 -21 0 -30z m-1390 -45 c-3 -8 -6 -5 -6 6 -1 11 2 17 5 13 3 -3
4 -12 1 -19z m1633 -107 c31 -68 17 -74 -15 -8 -23 47 -31 55 -36 40 -5 -12
-8 -5 -8 22 l-1 40 20 -25 c11 -14 29 -45 40 -69z m-1643 12 c-3 -10 -5 -2 -5
17 0 19 2 27 5 18 2 -10 2 -26 0 -35z m-30 -15 c-3 -8 -6 -5 -6 6 -1 11 2 17
5 13 3 -3 4 -12 1 -19z m1657 -50 c11 -30 15 -59 11 -78 -10 -45 -22 -36 -28
23 -4 28 -9 68 -13 87 -8 46 7 29 30 -32z m-1654 12 c0 -5 -4 -10 -10 -10 -5
0 -10 5 -10 10 0 6 5 10 10 10 6 0 10 -4 10 -10z m-121 -109 c-6 -18 -14 -30
-17 -27 -2 3 1 19 8 36 16 40 23 33 9 -9z m1841 -11 c14 -53 28 -170 20 -165
-4 3 -13 25 -20 49 -7 25 -21 54 -31 65 -10 11 -19 26 -19 33 0 13 27 58 35
58 2 0 9 -18 15 -40z m-1818 -82 c-8 -8 -9 -4 -5 13 4 13 8 18 11 10 2 -7 -1
-18 -6 -23z m1797 -34 c24 -62 27 -108 9 -102 -20 7 -37 49 -44 113 -9 72 6
68 35 -11z m-1822 -91 c-3 -10 -5 -2 -5 17 0 19 2 27 5 18 2 -10 2 -26 0 -35z
m1799 -98 c-4 -27 -10 -79 -14 -115 l-8 -65 -8 58 c-8 55 -3 140 11 196 l6 25
9 -25 c5 -13 7 -46 4 -74z m-715 13 c-15 -72 -18 -336 -7 -640 6 -174 6 -248
-2 -248 -6 0 -17 -3 -25 -6 -14 -5 -16 30 -18 278 -6 672 -7 664 34 670 12 2
24 3 25 2 2 -1 -1 -27 -7 -56z m67 -135 c2 -109 7 -236 12 -283 5 -47 10 -169
10 -271 l0 -187 -26 -6 c-15 -4 -29 -5 -31 -2 -3 3 -11 139 -19 303 -14 304
-8 498 17 588 28 100 35 73 37 -142z m-1161 165 c-3 -8 -6 -5 -6 6 -1 11 2 17
5 13 3 -3 4 -12 1 -19z m1018 -341 c-1 -549 -2 -587 -19 -587 -8 0 -18 5 -22
11 -4 6 -8 140 -9 298 -1 157 -5 336 -10 396 -7 94 -5 119 11 172 10 36 25 64
34 67 8 2 15 4 15 5 0 0 0 -162 0 -362z m228 301 c-11 -93 -10 -229 5 -551 8
-158 11 -294 8 -302 -3 -8 -14 -15 -25 -15 -18 0 -19 11 -24 223 -3 122 -10
317 -16 432 -5 116 -7 225 -4 243 4 27 9 32 34 32 l29 0 -7 -62z m-310 -37
c-14 -66 -14 -90 0 -225 12 -113 14 -211 10 -388 -6 -237 -6 -238 -28 -238
-21 0 -22 5 -28 118 -4 64 -10 248 -14 408 -7 328 -2 376 46 392 14 5 27 9 27
8 1 0 -5 -34 -13 -75z m375 -181 c12 -257 7 -619 -8 -634 -6 -6 -10 -6 -11 -1
0 6 -2 18 -4 27 -2 10 -8 158 -15 330 -6 172 -13 315 -15 318 -5 9 14 200 21
211 15 26 22 -26 32 -251z m561 253 c0 -5 -4 -17 -9 -28 -8 -18 -9 -17 -9 8
-1 15 4 27 9 27 6 0 10 -3 9 -7z m-1889 -108 c-6 -81 -7 -84 -9 -29 -1 55 8
129 14 122 2 -2 -1 -43 -5 -93z m1776 58 c-11 -11 -17 4 -9 23 7 18 8 18 11 1
2 -10 1 -21 -2 -24z m-911 -220 c0 -131 4 -329 8 -440 l9 -203 -25 0 -24 0 -7
335 c-8 375 -3 513 22 533 9 6 16 12 17 12 0 0 0 -107 0 -237z m535 147 c3
-25 4 -202 3 -394 -1 -352 -2 -365 -36 -366 -5 0 -7 118 -5 263 1 144 -1 336
-6 427 l-8 165 24 -25 c14 -16 25 -42 28 -70z m159 20 c-1 -32 -2 -33 -9 -10
-4 14 -8 36 -9 50 -1 20 1 22 9 10 5 -8 9 -31 9 -50z m-759 -750 c-4 -38 -9
12 -14 160 -12 338 -12 603 -1 620 12 18 26 -691 15 -780z m-46 240 c3 -146 3
-271 -2 -278 -5 -7 -16 -10 -24 -7 -14 6 -17 37 -22 203 -3 108 -8 243 -12
300 -6 111 8 256 28 280 15 18 22 -84 32 -498z m696 459 c0 -4 -4 -11 -10 -14
-5 -3 -10 0 -10 9 0 8 -3 23 -6 33 -5 16 -4 16 10 -1 9 -11 16 -23 16 -27z
m105 -59 c6 -65 6 -65 -10 -31 -8 18 -15 52 -15 74 0 63 18 32 25 -43z m285
-40 c-9 -22 -10 -20 -5 15 2 22 6 56 7 75 1 25 3 20 5 -15 2 -28 -1 -62 -7
-75z m40 50 c0 -26 -3 -31 -10 -20 -5 8 -10 31 -10 50 0 26 3 31 10 20 5 -8
10 -31 10 -50z m-303 28 c-3 -8 -6 -5 -6 6 -1 11 2 17 5 13 3 -3 4 -12 1 -19z
m-907 -158 l-6 -155 -2 124 c-2 105 -4 122 -17 117 -8 -3 -15 -2 -15 2 0 9 40
75 43 71 2 -2 0 -74 -3 -159z m825 105 c15 -31 24 -62 22 -70 -3 -7 1 -71 8
-142 8 -70 15 -187 15 -260 0 -121 -2 -133 -19 -143 -11 -5 -29 -10 -40 -10
-21 0 -21 3 -14 118 10 146 10 474 1 525 -4 20 -5 37 -4 37 2 0 16 -25 31 -55z
m120 -63 l5 -57 -18 65 c-10 36 -16 71 -13 79 7 22 20 -22 26 -87z m175 -63
c-5 -67 -11 -124 -14 -127 -12 -11 -12 199 0 258 6 32 7 33 15 12 5 -12 4 -75
-1 -143z m-338 -39 c4 -210 -10 -471 -24 -446 -6 11 -8 49 -4 95 4 42 7 182 7
311 0 266 15 295 21 40z m215 153 c-3 -10 -5 -4 -5 12 0 17 2 24 5 18 2 -7 2
-21 0 -30z m-1272 -249 c-5 -69 -10 -91 -21 -91 -11 0 -14 26 -14 139 0 79 4
137 9 134 12 -8 20 17 23 62 1 20 4 -6 6 -58 2 -52 0 -136 -3 -186z m1289 129
c-10 -40 -19 -71 -21 -69 -4 4 14 139 24 181 l8 30 3 -35 c2 -19 -4 -68 -14
-107z m55 1 c-14 -141 -31 -176 -23 -48 5 84 22 179 31 171 2 -3 -2 -58 -8
-123z m-1134 -133 l-25 -26 5 45 c2 25 7 71 10 102 3 31 11 69 18 85 11 25 12
17 15 -76 3 -101 2 -106 -23 -130z m-578 167 c-2 -13 -4 -5 -4 17 -1 22 1 32
4 23 2 -10 2 -28 0 -40z m1560 30 c-3 -8 -6 -5 -6 6 -1 11 2 17 5 13 3 -3 4
-12 1 -19z m56 -79 c-4 -4 -6 13 -3 39 l5 47 3 -39 c2 -21 0 -42 -5 -47z m-46
29 c-3 -8 -6 -5 -6 6 -1 11 2 17 5 13 3 -3 4 -12 1 -19z m10 -50 c-3 -8 -6 -5
-6 6 -1 11 2 17 5 13 3 -3 4 -12 1 -19z m-1292 -126 c23 -142 23 -142 14 -142
-4 0 -10 21 -14 48 -3 26 -10 75 -15 109 -22 133 -22 130 -10 105 5 -13 17
-67 25 -120z m172 106 c-3 -8 -6 -5 -6 6 -1 11 2 17 5 13 3 -3 4 -12 1 -19z
m80 -218 c1 -142 -2 -228 -8 -225 -5 4 -9 32 -9 63 0 31 -5 108 -10 171 -9 96
-8 123 5 168 9 29 17 53 18 53 1 0 3 -104 4 -230z m1070 163 c-2 -16 -4 -5 -4
22 0 28 2 40 4 28 2 -13 2 -35 0 -50z m-1530 25 c-3 -7 -5 -2 -5 12 0 14 2 19
5 13 2 -7 2 -19 0 -25z m320 -75 c-2 -21 -4 -6 -4 32 0 39 2 55 4 38 2 -18 2
-50 0 -70z m1259 10 c-8 -101 -13 -123 -28 -123 -7 0 -9 19 -4 55 8 70 26 155
33 155 3 0 2 -39 -1 -87z m-1619 35 c-3 -8 -6 -5 -6 6 -1 11 2 17 5 13 3 -3 4
-12 1 -19z m1521 -78 c6 -36 9 -96 8 -133 -2 -37 1 -70 6 -73 17 -11 7 -41
-17 -52 l-25 -12 0 183 c1 184 8 209 28 87z m332 64 c0 -8 -4 -14 -10 -14 -5
0 -10 9 -10 21 0 11 5 17 10 14 6 -3 10 -13 10 -21z m-39 -91 c-6 -70 -14 -93
-28 -80 -6 7 13 133 24 150 9 15 10 4 4 -70z m-1401 -78 c-8 -135 -12 -142
-11 -15 1 75 9 147 15 138 2 -2 0 -57 -4 -123z m1575 85 c-11 -5 -27 -9 -35
-9 -13 -1 -13 0 0 9 8 5 24 9 35 9 l20 0 -20 -9z m-1411 -101 c10 -97 7 -209
-5 -209 -6 0 -18 4 -28 9 -15 8 -17 27 -19 135 -1 125 -1 126 22 126 21 0 24
-6 30 -61z m1177 18 c-17 -17 -24 -1 -10 25 12 21 14 21 17 4 2 -10 -1 -23 -7
-29z m-1132 -104 c1 -58 -3 -103 -8 -103 -6 0 -10 53 -10 123 0 76 4 115 9
102 5 -11 9 -66 9 -122z m-590 90 c12 -18 19 -33 14 -33 -9 0 -43 52 -43 66 0
9 -1 9 29 -33z m436 -164 c6 -20 5 -22 -6 -11 -10 9 -14 44 -16 115 l-1 102 8
-91 c4 -50 11 -102 15 -115z m-257 120 c-3 -8 -7 -3 -11 10 -4 17 -3 21 5 13
5 -5 8 -16 6 -23z m1395 -30 c-6 -6 -7 3 -4 23 4 28 6 29 9 9 2 -13 0 -27 -5
-32z m-1496 -35 c-3 -3 -13 8 -21 25 -23 43 -19 52 5 13 12 -18 19 -35 16 -38z
m210 14 c-3 -8 -6 -5 -6 6 -1 11 2 17 5 13 3 -3 4 -12 1 -19z m-157 -9 c0 -6
-4 -7 -10 -4 -5 3 -10 11 -10 16 0 6 5 7 10 4 6 -3 10 -11 10 -16z m220 -35
c0 -8 -5 -12 -10 -9 -6 4 -8 11 -5 16 9 14 15 11 15 -7z m27 -16 c-3 -7 -5 -2
-5 12 0 14 2 19 5 13 2 -7 2 -19 0 -25z m213 -58 c0 -5 -4 -10 -10 -10 -5 0
-10 5 -10 10 0 6 5 10 10 10 6 0 10 -4 10 -10z m840 -6 c0 -5 -63 -34 -75 -34
-3 0 -5 4 -5 9 0 5 17 13 38 19 20 5 38 10 40 11 1 1 2 -1 2 -5z m-97 -77 c-5
-35 -8 -37 -43 -37 -24 0 -40 5 -44 15 -3 8 -14 15 -25 15 -11 0 -23 5 -26 10
-3 6 -20 10 -37 10 -33 0 -34 8 -2 14 11 2 51 7 89 11 39 4 72 9 74 11 12 12
20 -16 14 -49z m200 40 c51 -22 63 -42 43 -72 -20 -31 -29 -31 -55 -4 -19 20
-22 21 -44 6 -23 -15 -26 -15 -48 9 -14 15 -31 23 -41 21 -33 -9 -19 9 25 30
50 26 76 28 120 10z m-948 -32 c69 -26 87 -43 83 -79 -2 -22 -11 -35 -30 -44
-23 -11 -31 -10 -63 9 -19 12 -49 41 -66 65 -16 24 -34 44 -38 44 -12 0 -22
-45 -15 -67 5 -16 4 -16 -10 1 -20 25 -20 24 4 64 18 28 25 33 53 30 17 -2 55
-12 82 -23z m115 1 c0 -24 -15 -26 -28 -5 -11 16 -9 19 8 19 11 0 20 -6 20
-14z m53 -23 c-5 -13 -1 -15 23 -9 122 29 124 29 172 -1 29 -18 48 -38 53 -55
6 -24 4 -28 -24 -37 -71 -21 -105 -20 -134 2 -15 12 -34 30 -42 40 -7 10 -20
16 -27 13 -20 -8 -53 14 -48 31 2 7 6 20 9 29 3 8 9 13 14 9 6 -3 7 -13 4 -22z
m257 5 c0 -21 -11 -23 -28 -6 -17 17 -15 24 8 24 13 0 20 -7 20 -18z m90 -8
c0 -5 -2 -10 -4 -10 -3 0 -8 5 -11 10 -3 6 -1 10 4 10 6 0 11 -4 11 -10z m286
-20 c8 0 14 -5 14 -11 0 -19 -35 -4 -37 16 -2 11 0 14 3 8 3 -7 12 -13 20 -13z
m-326 -9 c0 -20 -13 -35 -23 -25 -7 8 4 44 14 44 5 0 9 -9 9 -19z m163 -39
c-6 -43 -16 -61 -35 -62 -5 0 -7 3 -7 8 3 20 -2 32 -16 32 -8 0 -15 5 -15 11
0 5 5 7 10 4 6 -3 10 1 10 10 0 9 -4 14 -9 11 -5 -4 -11 -1 -13 6 -2 6 -10 8
-16 4 -13 -8 -7 -52 11 -73 6 -8 6 -13 0 -13 -20 0 -44 86 -28 102 3 2 29 5
60 6 l55 1 -7 -47z m-483 3 c20 -24 6 -28 -15 -5 -10 11 -13 20 -8 20 6 0 16
-7 23 -15z m602 -2 c2 -30 3 -103 1 -103 -2 0 -18 17 -38 38 -42 46 -45 69 -7
75 15 2 30 5 35 6 4 0 8 -7 9 -16z m58 -13 c0 -6 9 -5 24 2 14 6 32 8 41 5 14
-6 13 -11 -6 -48 -11 -23 -22 -58 -22 -77 -1 -34 -1 -34 -18 -13 -10 12 -23
21 -31 21 -10 0 -12 15 -10 60 2 33 8 60 13 60 5 0 9 -4 9 -10z m-303 -40 c13
-25 17 -42 10 -49 -10 -10 -5 -74 7 -103 6 -13 4 -18 -8 -18 -24 0 -36 34 -29
85 5 38 2 51 -17 77 -18 25 -20 32 -9 39 22 14 26 11 46 -31z m473 20 c0 -5 7
-7 16 -3 34 13 46 -55 19 -107 -9 -17 -21 -30 -28 -30 -9 0 -9 2 1 8 9 6 0 22
-33 57 -25 28 -44 54 -42 60 2 5 14 12 28 16 35 10 39 10 39 -1z m-987 -17
c-7 -2 -19 -2 -25 0 -7 3 -2 5 12 5 14 0 19 -2 13 -5z m117 -3 c0 -5 -2 -10
-4 -10 -3 0 -8 5 -11 10 -3 6 -1 10 4 10 6 0 11 -4 11 -10z m610 -67 c0 -4
-11 5 -25 21 -14 16 -25 36 -25 45 0 9 11 -1 25 -21 14 -20 25 -41 25 -45z
m-465 57 c3 -5 -1 -10 -9 -10 -9 0 -16 5 -16 10 0 6 4 10 9 10 6 0 13 -4 16
-10z m195 -19 c13 -26 13 -54 -2 -86 -8 -19 -16 -24 -31 -19 -16 5 -19 3 -14
-10 10 -26 -5 -18 -57 29 -27 25 -54 45 -60 45 -23 0 17 25 67 41 70 23 84 23
97 0z m-422 -24 c14 -3 25 0 31 10 7 13 12 13 39 -1 32 -17 42 -49 26 -91 -9
-22 -67 -51 -72 -36 -2 6 -11 11 -20 11 -15 0 -15 2 -2 10 8 5 10 10 4 10 -7
0 -26 14 -44 30 -35 33 -55 33 -25 0 17 -19 17 -19 -9 -7 -38 17 -34 51 9 75
11 6 24 7 30 3 5 -5 20 -11 33 -14z m174 6 c23 -5 27 -10 26 -37 0 -17 2 -45
6 -63 l7 -31 -55 -4 c-31 -1 -56 -2 -56 -2 0 1 7 15 15 30 18 35 20 95 3 113
-11 12 -9 13 7 7 11 -4 32 -10 47 -13z m443 -47 c15 -35 10 -53 -10 -36 -7 6
-17 9 -22 8 -4 -2 -21 7 -36 18 -44 35 -33 54 26 46 21 -3 33 -13 42 -36z
m285 2 c0 -6 -7 -5 -15 2 -8 7 -15 17 -15 22 0 6 7 5 15 -2 8 -7 15 -17 15
-22z m-635 -36 c-9 -9 -35 8 -35 24 0 16 2 16 20 -1 11 -10 18 -20 15 -23z
m405 28 c0 -5 -4 -10 -10 -10 -5 0 -10 5 -10 10 0 6 5 10 10 10 6 0 10 -4 10
-10z m126 -91 c0 -33 -3 -62 -7 -65 -4 -2 -22 9 -39 26 -17 17 -35 28 -40 25
-5 -3 -11 -1 -15 5 -4 6 -11 8 -16 5 -5 -4 -9 5 -9 19 0 21 9 30 48 49 63 31
77 19 78 -64z m88 75 c25 -9 19 -24 -9 -24 -24 0 -32 10 -18 23 8 8 8 8 27 1z
m-34 -58 c0 -3 -4 -8 -10 -11 -5 -3 -10 -1 -10 4 0 6 5 11 10 11 6 0 10 -2 10
-4z m-476 -38 c-9 -33 -12 -34 -29 -12 -14 18 -16 18 -28 2 -12 -15 -14 -15
-25 2 -10 17 -8 19 31 23 23 2 46 4 50 5 5 1 5 -8 1 -20z m174 -4 c17 -11 22
-24 22 -54 0 -21 -4 -41 -8 -44 -9 -6 -82 42 -95 62 -4 6 -17 12 -27 12 -25 0
-35 17 -20 35 14 17 93 10 128 -11z m113 -91 c12 -15 12 -16 -2 -11 -9 4 -27
1 -40 -6 l-24 -12 1 64 c2 85 24 103 40 32 6 -27 17 -57 25 -67z m283 94 c13
-9 16 -20 12 -35 -8 -25 -32 -20 -41 9 -4 10 -10 19 -15 19 -5 0 -7 -7 -4 -15
4 -8 1 -15 -5 -15 -18 0 -25 31 -10 41 20 12 42 11 63 -4z m-693 -7 c21 -12
25 -47 6 -70 -7 -8 -25 -20 -42 -26 -16 -6 -37 -14 -46 -18 -10 -4 -31 9 -62
40 -26 25 -47 50 -47 55 0 14 38 11 43 -3 4 -13 24 -7 77 23 21 11 48 11 71
-1z m99 -45 c0 -8 -4 -15 -10 -15 -5 0 -10 7 -10 15 0 8 5 15 10 15 6 0 10 -7
10 -15z m-295 -15 c10 -11 16 -22 14 -25 -7 -6 -49 24 -49 36 0 15 16 10 35
-11z m272 -34 c8 -4 22 -1 30 6 12 10 17 8 26 -7 6 -11 24 -33 41 -49 27 -25
36 -28 78 -23 47 6 48 6 67 -31 11 -21 31 -43 46 -50 33 -15 87 -16 102 -1 6
6 16 8 23 4 19 -12 -22 -34 -53 -28 -43 9 -67 -19 -67 -79 0 -27 5 -58 10 -69
9 -16 7 -19 -8 -19 -10 0 -23 -5 -29 -11 -9 -9 -16 -7 -28 5 -16 15 -15 18 8
36 52 41 47 117 -13 178 -33 33 -49 41 -91 47 -36 5 -65 18 -96 41 -46 35 -67
42 -78 24 -3 -5 -15 -10 -26 -10 -20 0 -19 2 5 31 14 17 27 36 27 42 1 7 4 2
6 -10 2 -12 11 -24 20 -27z m379 17 c-7 -7 -26 7 -26 19 0 6 6 6 15 -2 9 -7
13 -15 11 -17z m-276 -15 c15 -21 17 -28 6 -19 -16 13 -41 51 -33 51 2 0 14
-15 27 -32z m-390 -20 c0 -12 -6 -9 -26 13 -19 22 -19 22 4 8 12 -8 22 -17 22
-21z m200 -54 c0 -46 34 -102 66 -110 26 -7 71 17 81 42 11 30 20 13 9 -20
-11 -36 -35 -46 -113 -46 -29 0 -33 3 -33 28 0 15 -7 35 -15 45 -7 11 -11 25
-9 32 3 8 -6 17 -22 22 -25 8 -26 10 -10 26 29 28 46 21 46 -19z m454 14 c23
-21 25 -26 13 -48 -15 -31 -50 -37 -83 -15 -32 20 -29 55 6 72 33 17 35 17 64
-9z m179 -17 c24 -23 -46 -78 -84 -66 -25 8 -42 41 -34 66 6 19 12 20 58 14
29 -4 56 -10 60 -14z m-567 -56 l15 -30 -25 28 c-15 15 -26 36 -26 45 0 15 2
15 11 2 5 -8 17 -28 25 -45z m32 43 c9 -9 12 -9 12 0 0 7 5 12 10 12 6 0 10
-7 10 -15 0 -8 -6 -15 -13 -15 -16 0 -57 29 -41 30 5 0 15 -5 22 -12z m-178
-24 c25 -5 36 -15 47 -42 20 -49 5 -61 -44 -36 -21 10 -41 23 -44 28 -4 5 -16
6 -28 3 -13 -3 -28 1 -37 11 -15 14 -15 17 2 29 20 14 54 16 104 7z m950 -44
c-1 -34 -47 -87 -63 -71 -8 8 -7 11 6 11 30 0 18 15 -22 27 -22 7 -47 10 -56
7 -13 -5 -15 -1 -10 27 7 41 15 51 15 19 l0 -23 23 20 c43 41 107 31 107 -17z
m-590 14 c33 -20 61 -74 53 -103 -7 -28 -14 -27 -49 9 -16 16 -39 30 -51 30
-13 0 -23 5 -23 11 0 5 -4 7 -10 4 -15 -9 28 -86 51 -92 24 -7 25 -23 1 -23
-10 0 -29 12 -43 26 -31 33 -33 102 -5 133 23 25 39 26 76 5z m317 -70 c39
-30 42 -52 8 -84 -21 -20 -33 -23 -102 -21 -82 2 -93 8 -93 51 0 48 13 56 70
41 54 -14 70 -10 52 12 -7 8 -9 17 -5 20 13 13 36 7 70 -19z m163 16 c0 -5 -4
-10 -10 -10 -5 0 -10 5 -10 10 0 6 5 10 10 10 6 0 10 -4 10 -10z m-835 -30 c3
-5 -1 -10 -10 -10 -9 0 -13 5 -10 10 3 6 8 10 10 10 2 0 7 -4 10 -10z m865
-28 c3 -2 -6 -1 -20 3 -14 4 -32 14 -40 22 -12 12 -7 11 20 -2 19 -10 37 -20
40 -23z m223 21 c13 -8 -13 -43 -33 -43 -11 0 -20 -4 -20 -10 0 -5 -9 -10 -20
-10 -11 0 -20 -4 -20 -10 0 -5 -7 -10 -16 -10 -9 0 -23 -8 -30 -17 -12 -16
-12 -15 -8 7 12 54 27 95 38 102 10 8 92 0 109 -9z m-867 -18 c12 -18 14 -32
8 -45 -8 -18 -11 -19 -38 -5 -15 8 -32 15 -37 15 -14 0 -10 -22 8 -42 21 -23
8 -37 -15 -15 -9 10 -35 32 -56 51 -39 33 -39 34 -18 45 16 9 26 9 40 0 15 -9
25 -8 48 4 40 21 41 20 60 -8z m-289 9 c-3 -3 -12 -4 -19 -1 -8 3 -5 6 6 6 11
1 17 -2 13 -5z m1261 -66 c7 -7 12 -21 12 -33 0 -28 -19 -45 -50 -45 -66 0
-79 61 -17 79 43 12 41 13 55 -1z m-1142 -22 c20 -21 17 -28 -6 -16 -11 6 -20
15 -20 20 0 14 9 12 26 -4z m224 4 c0 -5 -4 -10 -10 -10 -5 0 -10 5 -10 10 0
6 5 10 10 10 6 0 10 -4 10 -10z m-140 -32 c0 -6 -6 -5 -15 2 -8 7 -15 14 -15
16 0 2 7 1 15 -2 8 -4 15 -11 15 -16z m1198 10 c7 -7 12 -26 12 -44 l0 -32
-47 6 c-27 2 -49 6 -51 7 -2 2 4 17 12 33 21 41 51 53 74 30z m-430 -14 c8 -2
12 -15 10 -31 l-3 -28 -75 2 c-41 2 -90 6 -108 9 -32 6 -33 7 -15 26 10 11 27
24 38 29 18 7 123 3 153 -7z m-525 -26 c14 -39 -48 -78 -123 -78 -47 0 -49 1
-38 20 7 10 26 20 43 22 35 3 37 20 3 28 -18 5 -20 8 -8 15 42 26 112 22 123
-7z m249 -3 c-3 -38 -50 -82 -96 -91 -39 -7 -109 22 -114 47 -8 40 78 78 168
75 44 -1 45 -2 42 -31z m405 -2 c0 -26 -3 -28 -44 -28 -24 0 -43 0 -43 1 0 18
17 34 35 34 13 0 27 5 30 10 11 18 22 10 22 -17z m163 -7 c0 -3 -4 -8 -10 -11
-5 -3 -10 -1 -10 4 0 6 5 11 10 11 6 0 10 -2 10 -4z m-70 -42 c0 -10 -20 -3
-41 16 l-24 20 33 -16 c17 -8 32 -17 32 -20z m-380 -14 l25 -19 -35 9 c-19 6
-36 10 -37 10 -2 0 -3 9 -3 20 0 16 3 18 13 10 6 -5 23 -19 37 -30z m-80 -12
c0 -5 -9 -8 -20 -8 -23 0 -25 6 -7 24 12 13 26 4 27 -16z m627 26 c13 -4 20
-10 17 -15 -8 -14 -40 -10 -54 6 -14 17 -3 20 37 9z m187 -10 c8 -21 8 -20
-31 -29 -39 -8 -44 6 -11 29 28 20 34 20 42 0z m-617 0 c-3 -3 -12 -4 -19 -1
-8 3 -5 6 6 6 11 1 17 -2 13 -5z m167 -21 c15 -31 6 -70 -19 -79 -8 -4 -27 1
-41 10 -35 24 -85 17 -100 -12 -11 -22 -12 -23 -17 -3 -3 12 -3 30 0 40 6 22
29 35 38 21 4 -6 15 -10 26 -10 16 0 18 5 13 24 -5 23 -2 25 33 29 21 2 41 4
45 5 4 1 14 -10 22 -25z m186 12 c0 -8 -7 -15 -15 -15 -8 0 -15 -4 -15 -8 0
-5 -24 -13 -54 -18 -52 -10 -55 -9 -59 12 -3 20 -1 22 22 18 14 -3 44 1 66 9
53 19 55 19 55 2z m60 -24 c0 -4 -11 -6 -25 -3 -14 2 -25 6 -25 8 0 2 11 4 25
4 14 0 25 -4 25 -9z m190 -21 c0 -5 -9 -10 -19 -10 -11 0 -23 5 -26 10 -4 6 5
10 19 10 14 0 26 -4 26 -10z m-735 -16 c30 -20 32 -45 4 -70 -17 -15 -23 -16
-41 -5 -17 10 -22 10 -29 0 -6 -10 -10 -10 -23 0 -9 7 -23 11 -31 7 -8 -3 -31
5 -51 19 l-35 24 24 16 c13 8 31 13 39 10 7 -3 32 -1 53 4 57 13 63 13 90 -5z
m85 -11 c0 -16 3 -38 6 -50 5 -19 2 -23 -17 -23 -22 0 -24 4 -24 50 0 41 3 50
18 50 12 0 17 -8 17 -27z m442 -9 c-13 -10 -19 -9 -29 5 -19 25 -15 30 16 18
26 -10 28 -12 13 -23z m-58 -10 c3 -8 1 -24 -4 -34 -12 -23 -86 -46 -103 -32
-7 6 -29 8 -49 7 l-37 -3 24 24 c49 49 155 73 169 38z m186 2 c21 -26 8 -59
-24 -62 -16 -2 -34 -8 -39 -13 -12 -12 -70 -15 -80 -5 -10 10 25 55 58 75 36
23 68 24 85 5z m-927 -8 c21 -16 27 -79 8 -86 -8 -2 -11 0 -8 5 3 5 2 15 -3
23 -7 12 -10 12 -16 -3 -8 -22 -32 -22 -57 1 -15 13 -21 14 -24 4 -4 -10 -10
-9 -25 5 -11 10 -23 18 -27 18 -9 -1 -1 29 10 35 18 12 125 10 142 -2z m491 4
c3 -5 -8 -6 -25 -4 -16 2 -29 6 -29 8 0 8 49 4 54 -4z m-399 -70 c-9 -9 -25
11 -25 31 1 21 1 21 15 -3 7 -14 12 -27 10 -28z m400 33 c0 -5 -19 -11 -42
-13 -40 -3 -58 10 -30 22 20 8 72 2 72 -9z m-85 -64 c5 -11 10 -29 10 -39 0
-17 -7 -20 -42 -20 -24 1 -53 -2 -65 -6 -19 -6 -23 -4 -23 14 0 52 97 94 120
51z m110 9 c0 -5 -4 -10 -10 -10 -5 0 -10 5 -10 10 0 6 5 10 10 10 6 0 10 -4
10 -10z m260 -4 c0 -3 -4 -8 -10 -11 -5 -3 -10 -1 -10 4 0 6 5 11 10 11 6 0
10 -2 10 -4z m-295 -36 c7 -12 -22 -70 -35 -70 -6 0 -6 10 1 27 5 14 8 32 5
40 -6 15 20 18 29 3z m145 -30 c-6 -12 -26 -20 -60 -25 -27 -4 -47 -11 -44
-16 3 -5 -4 -9 -16 -9 l-21 0 21 30 c14 20 32 31 58 35 20 4 42 8 47 9 18 6
25 -5 15 -24z m-446 4 c20 -8 21 -57 2 -73 -9 -8 -32 -8 -75 -3 -50 7 -64 6
-68 -5 -3 -7 -12 -13 -21 -13 -36 0 60 78 112 90 17 5 32 8 33 9 1 1 8 -2 17
-5z m226 -24 c0 -5 -7 -10 -15 -10 -8 0 -15 5 -15 10 0 6 7 10 15 10 8 0 15
-4 15 -10z m19 -61 c23 -8 31 -17 31 -35 0 -21 -4 -24 -39 -24 -22 0 -43 -4
-46 -10 -10 -16 -25 -11 -25 9 0 15 35 71 44 71 2 0 17 -5 35 -11z m101 1 c-8
-5 -22 -10 -30 -10 -13 0 -13 1 0 10 8 5 22 10 30 10 13 0 13 -1 0 -10z m-385
-30 c-8 -13 -62 -22 -85 -15 -36 11 -21 20 35 21 30 1 52 -2 50 -6z m265 -82
c0 -13 -53 -6 -57 8 -2 7 8 9 27 6 16 -2 30 -9 30 -14z"/>
<path d="M1530 5176 c0 -5 98 -56 106 -56 15 0 -2 18 -36 38 -35 20 -70 29
-70 18z"/>
<path d="M1650 5115 c0 -9 54 -54 65 -55 6 0 -5 14 -24 30 -34 30 -41 34 -41
25z"/>
<path d="M1933 4970 c-3 -11 -10 -17 -17 -13 -6 4 -5 0 2 -9 8 -10 10 -26 6
-42 -9 -39 3 -76 26 -76 39 0 68 22 74 55 9 48 -1 65 -39 65 -28 0 -32 3 -28
20 3 12 0 20 -7 20 -6 0 -14 -9 -17 -20z m67 -66 c0 -8 -4 -13 -9 -10 -5 3
-11 -3 -14 -14 -6 -25 -27 -26 -27 -2 0 14 8 21 48 41 1 0 2 -6 2 -15z"/>
<path d="M2184 4905 c6 -16 19 -37 161 -245 115 -170 116 -172 122 -166 7 7
-18 48 -155 254 -63 94 -119 172 -124 172 -6 0 -8 -7 -4 -15z"/>
<path d="M1070 4839 c0 -5 5 -7 10 -4 6 3 10 8 10 11 0 2 -4 4 -10 4 -5 0 -10
-5 -10 -11z"/>
<path d="M2020 4701 c0 -17 32 -71 42 -71 13 0 10 9 -17 48 -14 20 -25 31 -25
23z"/>
<path d="M1963 4624 c-34 -6 -101 -30 -114 -41 -36 -30 -99 -153 -119 -233
-20 -77 -20 -85 -5 -130 9 -26 34 -73 55 -103 91 -127 284 -173 404 -96 64 40
123 119 132 175 11 73 -1 174 -25 222 -20 40 -133 162 -150 162 -5 0 -20 9
-35 21 -23 18 -100 30 -143 23z m125 -208 c3 -13 -1 -14 -20 -7 -13 4 -24 16
-26 25 -3 13 1 14 20 7 13 -4 24 -16 26 -25z m-118 -28 c0 -6 -7 -5 -15 2 -8
7 -15 17 -15 22 0 6 7 5 15 -2 8 -7 15 -17 15 -22z m-15 -18 c4 -6 4 -24 0
-40 l-7 -30 -24 36 c-29 42 -26 71 5 54 11 -5 23 -15 26 -20z m151 -7 c36 -41
58 -83 42 -83 -22 0 -38 15 -58 55 -32 62 -25 73 16 28z m-73 2 c-3 -9 -8 -14
-10 -11 -3 3 -2 9 2 15 9 16 15 13 8 -4z m45 -30 c15 -33 16 -32 -8 -38 -17
-4 -20 0 -20 29 0 40 12 44 28 9z m-148 -37 c6 -10 6 -19 1 -22 -12 -8 -44 42
-35 55 7 11 12 6 34 -33z m260 -9 c0 -10 -4 -19 -10 -19 -5 0 -10 4 -10 9 0 5
-3 17 -6 25 -5 12 -2 15 10 10 9 -3 16 -15 16 -25z m-173 -1 c-3 -8 -6 -5 -6
6 -1 11 2 17 5 13 3 -3 4 -12 1 -19z m-120 -24 c-9 -10 -38 16 -31 28 4 6 13
4 22 -6 9 -8 13 -19 9 -22z m-39 -9 c-3 -3 -13 -2 -22 1 -14 5 -15 9 -4 15 13
8 36 -6 26 -16z m225 -62 c-7 -2 -19 -2 -25 0 -7 3 -2 5 12 5 14 0 19 -2 13
-5z m-187 -30 c-7 -7 -26 7 -26 19 0 6 6 6 15 -2 9 -7 13 -15 11 -17z m269 17
c3 -5 1 -10 -4 -10 -6 0 -11 5 -11 10 0 6 2 10 4 10 3 0 8 -4 11 -10z m-229
-36 c8 -20 13 -38 10 -41 -5 -6 -36 51 -36 67 0 20 11 9 26 -26z m204 14 c0
-19 -2 -20 -10 -8 -13 19 -13 30 0 30 6 0 10 -10 10 -22z m-25 -8 c4 -13 0
-31 -10 -47 l-17 -26 -14 33 c-20 47 -19 51 28 59 4 0 10 -8 13 -19z m-160
-80 c3 -5 1 -10 -4 -10 -6 0 -11 5 -11 10 0 6 2 10 4 10 3 0 8 -4 11 -10z"/>
<path d="M2321 4578 c17 -29 40 -65 50 -80 24 -33 149 -294 149 -310 0 -6 3
-9 6 -6 14 15 -88 238 -170 372 -20 33 -36 63 -36 68 0 4 -7 8 -15 8 -11 0 -7
-14 16 -52z"/>
<path d="M1450 4602 c-20 -4 -75 -106 -84 -154 -4 -21 -2 -46 3 -57 16 -29 72
-57 126 -63 43 -5 55 -2 86 20 47 34 56 48 64 103 7 50 -15 95 -61 125 -26 17
-104 33 -134 26z m100 -39 c2 -2 4 -21 3 -41 -2 -37 -2 -37 9 -9 7 15 15 27
19 27 17 0 39 -46 39 -81 0 -91 -128 -131 -205 -64 -24 20 -27 28 -21 60 7 37
25 73 54 107 12 14 24 16 56 11 23 -3 43 -8 46 -10z"/>
<path d="M1482 4508 c3 -7 13 -15 22 -16 12 -3 17 1 14 10 -3 7 -13 15 -22 16
-12 3 -17 -1 -14 -10z"/>
<path d="M1440 4465 c0 -8 7 -15 15 -15 8 0 15 7 15 15 0 8 -7 15 -15 15 -8 0
-15 -7 -15 -15z"/>
<path d="M1481 4446 c-8 -9 -8 -16 -2 -20 5 -4 13 -2 16 4 4 6 15 8 26 5 13
-4 19 -2 19 9 0 20 -43 21 -59 2z"/>
<path d="M1507 4413 c-12 -11 -8 -23 8 -23 8 0 15 7 15 15 0 16 -12 20 -23 8z"/>
<path d="M385 4504 c-27 -27 -36 -53 -38 -110 -2 -58 8 -74 48 -74 41 0 69 24
82 69 8 29 9 48 3 56 -6 7 -6 16 0 23 7 9 7 9 -2 2 -20 -17 -35 -11 -42 14 -7
30 -31 40 -51 20z m25 -34 c0 -5 -5 -10 -11 -10 -5 0 -7 5 -4 10 3 6 8 10 11
10 2 0 4 -4 4 -10z m20 -41 c0 -6 -6 -9 -12 -6 -7 2 -21 0 -30 -5 -14 -6 -16
-5 -12 7 7 17 54 21 54 4z m-15 -69 c-3 -6 -10 -10 -16 -10 -10 0 -12 33 -2
44 9 9 26 -22 18 -34z m35 25 c0 -8 -4 -15 -10 -15 -5 0 -7 7 -4 15 4 8 8 15
10 15 2 0 4 -7 4 -15z"/>
<path d="M862 4508 c-27 -6 -42 -14 -40 -23 2 -7 -29 -44 -68 -81 -86 -84
-124 -155 -132 -249 -6 -81 13 -135 68 -192 33 -35 50 -44 109 -57 94 -21 103
-21 177 14 80 39 119 71 147 124 19 35 22 57 22 156 0 102 -3 120 -24 160 -40
75 -123 141 -195 154 -12 3 -40 0 -64 -6z m112 -49 c20 -12 36 -22 36 -24 0
-4 -81 12 -86 18 -6 5 3 27 11 27 2 0 20 -9 39 -21z m0 -105 c5 -22 16 -40 34
-51 26 -16 61 -52 62 -64 0 -3 -19 -4 -42 -3 -41 2 -43 3 -44 33 -1 18 -11 45
-22 61 -25 33 -30 72 -8 64 8 -3 17 -21 20 -40z m-114 -9 c0 -14 -4 -25 -10
-25 -5 0 -10 11 -10 25 0 14 5 25 10 25 6 0 10 -11 10 -25z m110 -65 c0 -13
-1 -13 -10 0 -5 8 -10 22 -10 30 0 13 1 13 10 0 5 -8 10 -22 10 -30z m-91 -36
c1 -24 -16 -34 -56 -34 -22 0 -24 2 -13 15 9 11 16 13 24 5 18 -18 26 -11 14
15 -8 19 -8 28 3 41 12 15 14 14 20 -3 4 -10 8 -28 8 -39z m-94 -7 c-16 -39
-35 -49 -35 -20 0 16 40 67 47 59 2 -1 -4 -19 -12 -39z m256 -59 c-35 -90 -47
-109 -82 -133 -44 -29 -51 -17 -14 26 13 16 27 44 30 62 5 23 16 37 38 48 18
9 33 17 34 18 2 0 -1 -9 -6 -21z m79 -4 c0 -14 -4 -23 -9 -20 -5 3 -7 15 -4
26 7 28 13 25 13 -6z m-234 -81 c-8 -31 -49 -51 -70 -34 -16 13 -41 79 -33 87
2 2 23 6 47 9 23 2 45 7 49 10 9 10 14 -43 7 -72z m64 65 c0 -9 4 -8 10 2 15
24 12 -5 -6 -50 -21 -52 -35 -51 -30 3 3 23 5 45 5 50 1 12 21 8 21 -5z m-186
-34 c9 -24 7 -27 -9 -10 -17 17 -19 26 -6 26 5 0 12 -7 15 -16z m321 -74 c-9
-18 -19 -30 -21 -27 -3 2 3 20 13 40 10 19 19 31 21 27 2 -5 -4 -23 -13 -40z
m-203 -12 c-7 -7 -12 -8 -12 -2 0 14 12 26 19 19 2 -3 -1 -11 -7 -17z m-68 -3
c11 -8 32 -15 48 -15 23 0 28 -4 28 -24 0 -23 -1 -24 -27 -10 -35 17 -91 63
-78 63 6 0 19 -6 29 -14z"/>
<path d="M550 4489 c0 -5 5 -7 10 -4 6 3 10 8 10 11 0 2 -4 4 -10 4 -5 0 -10
-5 -10 -11z"/>
<path d="M515 4460 c-10 -11 -15 -20 -11 -20 11 0 39 30 34 36 -3 2 -13 -5
-23 -16z"/>
<path d="M2474 4465 c4 -11 10 -36 13 -55 6 -40 61 -201 74 -214 5 -5 4 6 -3
25 -6 19 -11 48 -10 66 0 25 -3 30 -15 26 -13 -5 -15 0 -10 33 4 24 3 31 -2
19 -6 -14 -9 -6 -14 35 -4 30 -14 61 -23 69 -15 15 -16 14 -10 -4z"/>
<path d="M234 4376 c-32 -14 -50 -33 -41 -42 5 -6 87 43 87 51 0 8 -13 5 -46
-9z"/>
<path d="M237 4301 c4 -23 3 -32 -4 -28 -14 9 -51 -71 -63 -135 -13 -64 -13
-145 -1 -150 15 -5 17 -200 3 -225 -13 -23 -42 -32 -42 -12 0 5 -4 8 -10 4 -6
-3 -5 -16 2 -33 14 -31 37 -54 49 -46 5 3 17 0 28 -5 15 -8 24 -5 45 14 30 28
30 26 14 77 -8 27 -18 40 -35 44 -26 7 -30 18 -38 129 -12 156 -8 193 32 274
20 42 36 81 36 88 0 7 4 13 9 13 4 0 8 5 8 11 0 8 -4 8 -14 0 -11 -9 -15 -9
-19 1 -3 7 -3 -2 0 -21z m-2 -561 c7 -12 -12 -40 -26 -40 -10 0 -12 34 -2 43
9 10 21 9 28 -3z m-67 -45 c-3 -3 -9 2 -12 12 -6 14 -5 15 5 6 7 -7 10 -15 7
-18z"/>
<path d="M2580 4305 c0 -6 72 -203 116 -315 20 -52 43 -117 50 -145 l13 -50
-5 45 c-6 53 -20 97 -79 245 -24 61 -51 136 -60 168 -9 31 -21 57 -26 57 -5 0
-9 -2 -9 -5z"/>
<path d="M1341 4246 c-19 -20 -41 -36 -48 -36 -17 0 -17 -36 1 -43 7 -3 16
-19 19 -36 9 -43 40 -71 80 -71 36 0 59 19 76 61 8 21 5 35 -10 63 -10 20 -19
46 -19 59 0 13 -6 24 -12 25 -7 0 -22 3 -33 7 -15 4 -29 -4 -54 -29z m73 -42
c19 -41 16 -50 -11 -35 -10 5 -26 12 -35 15 -22 7 -23 20 -2 40 22 23 28 20
48 -20z m-26 -63 c39 -16 45 -51 8 -51 -13 0 -28 6 -34 13 -13 17 -26 60 -16
55 5 -2 24 -10 42 -17z"/>
<path d="M2398 4151 c-23 -49 -23 -121 1 -174 10 -23 22 -51 26 -62 6 -17 8
-18 18 -5 7 8 24 23 39 33 29 18 53 64 64 123 5 30 2 40 -22 65 -17 18 -38 29
-55 29 -15 0 -29 7 -33 15 -9 24 -20 17 -38 -24z m50 -63 c10 -24 9 -28 -4
-28 -8 0 -19 -10 -24 -22 -7 -19 -9 -16 -9 19 -2 76 13 88 37 31z m50 26 c23
-16 30 -58 12 -69 -5 -3 -10 0 -10 7 0 7 -8 18 -19 25 -22 14 -35 53 -17 53 6
0 22 -7 34 -16z m-3 -94 c8 -14 -17 -50 -36 -50 -12 0 -14 7 -11 30 4 30 33
42 47 20z"/>
<path d="M2530 4166 c0 -12 43 -97 47 -93 2 3 -3 19 -11 36 -9 16 -16 37 -16
46 0 8 -4 15 -10 15 -5 0 -10 -2 -10 -4z"/>
<path d="M414 4145 c-39 -17 -56 -57 -52 -120 3 -43 7 -50 37 -67 37 -21 90
-18 109 5 16 19 34 98 28 122 -8 30 -52 75 -73 74 -10 0 -32 -7 -49 -14z m35
-56 c-28 -30 -41 -67 -18 -53 7 4 10 1 7 -7 -3 -8 -9 -14 -14 -14 -5 0 -15 -4
-21 -8 -9 -6 -13 -1 -13 16 0 38 20 85 38 90 46 12 50 7 21 -24z m57 -31 c-3
-13 -6 -29 -6 -35 0 -7 -4 -13 -10 -13 -11 0 -13 30 -4 54 9 25 27 19 20 -6z
m-36 -68 c0 -5 -11 -10 -25 -10 -14 0 -25 5 -25 10 0 6 11 10 25 10 14 0 25
-4 25 -10z"/>
<path d="M2753 3974 c4 -49 13 -120 21 -159 15 -69 15 -69 10 -15 -2 30 -7 99
-11 153 -3 54 -10 100 -16 104 -6 4 -8 -25 -4 -83z"/>
<path d="M1361 3984 c-36 -7 -69 -19 -75 -25 -8 -8 -6 -10 9 -6 66 18 139 27
172 22 l38 -7 -29 16 c-33 19 -32 19 -115 0z"/>
<path d="M1535 3990 c-14 -6 0 -8 47 -7 36 1 69 -1 73 -5 4 -4 -5 -19 -19 -35
-21 -22 -25 -34 -20 -58 6 -34 37 -65 65 -65 44 0 81 87 45 105 -11 6 -23 21
-26 34 -3 13 -14 26 -25 29 -42 10 -121 11 -140 2z m145 -60 c0 -5 -5 -10 -11
-10 -5 0 -7 5 -4 10 3 6 8 10 11 10 2 0 4 -4 4 -10z m30 -36 c0 -3 -5 -15 -12
-27 -11 -21 -11 -21 -18 -2 -4 11 -6 23 -3 28 5 8 33 10 33 1z"/>
<path d="M1920 3919 c0 -5 5 -7 10 -4 6 3 10 8 10 11 0 2 -4 4 -10 4 -5 0 -10
-5 -10 -11z"/>
<path d="M2015 3909 c28 -5 62 -16 78 -25 22 -13 27 -13 27 -1 0 17 -65 37
-116 36 -38 -1 -38 -1 11 -10z"/>
<path d="M1825 3900 c27 -12 43 -12 25 0 -8 5 -22 9 -30 9 -10 0 -8 -3 5 -9z"/>
<path d="M2675 3889 c-5 -5 -19 -16 -30 -24 -16 -11 -18 -17 -9 -32 14 -23 44
-27 68 -8 16 12 18 20 10 42 -10 29 -24 37 -39 22z"/>
<path d="M1087 3850 c-56 -11 -59 -24 -4 -17 52 7 101 27 62 26 -11 -1 -37 -5
-58 -9z"/>
<path d="M1205 3840 l-30 -8 30 0 c17 0 41 4 55 8 l25 8 -25 0 c-14 0 -38 -4
-55 -8z"/>
<path d="M563 3830 c-36 -14 -44 -42 -32 -99 11 -53 23 -63 44 -34 11 15 13
15 24 -5 9 -16 21 -22 46 -22 18 0 36 -4 40 -10 3 -5 15 -6 28 -1 12 5 38 14
57 20 l35 11 -38 -5 c-26 -2 -37 0 -35 8 1 7 -1 28 -5 47 -6 29 -17 42 -60 68
-56 34 -68 36 -104 22z m93 -47 c34 -22 44 -34 44 -54 0 -22 -6 -28 -32 -33
-32 -6 -29 -9 -99 73 -10 11 -9 17 6 27 26 19 32 18 81 -13z m-86 -54 c0 -6
-4 -7 -10 -4 -5 3 -10 11 -10 16 0 6 5 7 10 4 6 -3 10 -11 10 -16z"/>
<path d="M1640 3782 c0 -7 23 -9 68 -5 37 3 117 0 177 -6 128 -14 368 -14 411
-1 20 6 -18 9 -126 9 -85 0 -239 3 -342 7 -132 5 -188 3 -188 -4z"/>
<path d="M1240 3772 c0 -4 36 -7 79 -7 44 0 77 3 75 7 -3 5 -39 8 -80 8 -41 0
-74 -3 -74 -8z"/>
<path d="M1553 3773 c9 -2 25 -2 35 0 9 3 1 5 -18 5 -19 0 -27 -2 -17 -5z"/>
<path d="M915 3733 c22 -3 43 -9 46 -15 4 -6 15 -8 25 -4 31 12 -4 26 -61 24
-47 -1 -47 -2 -10 -5z"/>
<path d="M147 3652 c3 -12 9 -25 14 -28 14 -8 11 10 -6 32 -13 18 -14 18 -8
-4z"/>
<path d="M188 3641 c9 -16 20 -27 24 -25 9 6 -22 53 -34 54 -4 0 0 -13 10 -29z"/>
<path d="M1860 5175 c0 -8 5 -15 10 -15 6 0 10 7 10 15 0 8 -4 15 -10 15 -5 0
-10 -7 -10 -15z"/>
<path d="M1840 5055 c0 -9 5 -15 11 -13 6 2 11 8 11 13 0 5 -5 11 -11 13 -6 2
-11 -4 -11 -13z"/>
<path d="M1330 4770 c0 -5 5 -10 10 -10 6 0 10 5 10 10 0 6 -4 10 -10 10 -5 0
-10 -4 -10 -10z"/>
<path d="M650 4631 c0 -11 -5 -23 -10 -26 -15 -9 -2 -25 21 -25 17 0 19 5 16
32 -4 35 -27 52 -27 19z"/>
<path d="M1702 3210 c0 -19 2 -27 5 -17 2 9 2 25 0 35 -3 9 -5 1 -5 -18z"/>
<path d="M1192 3160 c0 -19 2 -27 5 -17 2 9 2 25 0 35 -3 9 -5 1 -5 -18z"/>
<path d="M1721 3014 c0 -11 3 -14 6 -6 3 7 2 16 -1 19 -3 4 -6 -2 -5 -13z"/>
<path d="M1741 2923 c-1 -40 25 -177 38 -201 16 -27 14 5 -4 66 -9 28 -19 78
-24 109 -5 37 -9 46 -10 26z"/>
<path d="M2000 2884 c0 -38 5 -76 10 -84 7 -10 8 10 4 65 -8 101 -14 109 -14
19z"/>
<path d="M940 2911 c-6 -12 -7 -21 -1 -21 10 0 24 30 17 37 -2 3 -9 -5 -16
-16z"/>
<path d="M2285 2852 c3 -41 12 -86 21 -100 l15 -27 -7 30 c-3 17 -12 62 -20
100 l-14 70 5 -73z"/>
<path d="M1896 2594 c-29 -31 -56 -86 -56 -113 0 -20 40 -61 58 -61 16 0 15
22 -3 46 -26 34 -18 45 19 23 28 -16 35 -17 45 -6 12 16 2 28 -31 40 -10 4
-18 16 -18 28 0 19 2 20 18 8 9 -8 20 -18 23 -23 10 -13 39 1 39 19 0 9 -8 18
-17 22 -10 3 -25 15 -34 26 -16 19 -16 19 -43 -9z"/>
<path d="M1404 2542 c-16 -10 -34 -48 -34 -70 0 -11 14 -32 31 -46 24 -20 34
-24 49 -16 22 12 25 16 34 52 4 20 0 34 -20 57 -26 31 -40 37 -60 23z m44 -76
c-2 -12 -7 -21 -12 -21 -15 0 -29 31 -22 50 5 14 9 15 22 5 8 -8 14 -23 12
-34z"/>
<path d="M1234 2505 c-4 -9 -1 -28 5 -41 6 -14 9 -30 6 -35 -12 -18 -42 -9
-53 16 -6 14 -16 25 -22 25 -19 0 -22 -28 -7 -51 9 -12 13 -28 10 -37 -4 -10
-2 -13 6 -8 7 5 15 -3 22 -23 6 -17 17 -31 24 -31 16 0 27 27 15 35 -17 10
-11 25 13 34 18 7 23 5 27 -13 7 -25 40 -35 40 -12 0 21 -56 142 -70 151 -5 3
-13 -1 -16 -10z"/>
<path d="M891 2416 c-6 -7 -13 -58 -16 -112 l-4 -99 9 85 c5 46 15 95 21 107
14 27 7 40 -10 19z"/>
<path d="M722 2390 c0 -14 2 -19 5 -12 2 6 2 18 0 25 -3 6 -5 1 -5 -13z"/>
<path d="M1152 2288 c-13 -65 -24 -183 -17 -176 6 6 35 221 30 226 -2 2 -8
-20 -13 -50z"/>
<path d="M2035 180 c3 -5 16 -10 28 -10 18 0 19 2 7 10 -20 13 -43 13 -35 0z"/>
<path d="M528 5763 c7 -3 16 -2 19 1 4 3 -2 6 -13 5 -11 0 -14 -3 -6 -6z"/>
</g>
</svg>
